<svg xmlns="http://www.w3.org/2000/svg" viewBox="0 0 16 16"><style>.st0{opacity:0}.st0,.st1{fill:#f6f6f6}.st2{fill:#424242}.st3{fill:#fc0}</style><g id="outline"><path class="st0" d="M0 0h16v16H0z"/><path class="st1" d="M16 2H8v3H6V3H0v7h6V8h2v3h.5L7 14l1 2h7l1-2-1.5-3H16z"/></g><path class="st2" d="M5 9H1V4h4v5zm3-3H6v1h2V6zm4.5 1l1.5 3h1V3H9v7l1.5-3h2z" id="icon_x5F_bg"/><path class="st3" d="M11.891 8.016h-.781l-3.016 6 .515.984h5.766l.484-1-2.968-5.984zM12 14h-1v-1h1v1zm0-2h-1v-2h1v2z" id="not_x5F_bg"/><path d="M12 12h-1v-2h1v2zm0 1h-1v1h1v-1z" id="not_x5F_fg"/></svg>