<svg xmlns="http://www.w3.org/2000/svg" width="16" height="16"><style type="text/css">.icon-canvas-transparent{opacity:0;fill:#F6F6F6;} .icon-vs-out{fill:#F6F6F6;} .icon-vs-fg{fill:#F0EFF1;} .icon-vs-action-blue{fill:#00539C;}</style><path class="icon-canvas-transparent" d="M16 16h-16v-16h16v16z" id="canvas"/><path class="icon-vs-out" d="M15 8c0 3.9-3.1 7-7 7s-7-3.1-7-7 3.1-7 7-7 7 3.1 7 7z" id="outline"/><path class="icon-vs-action-blue" d="M2 8c0 3.2 2.8 6 6 6s6-2.8 6-6-2.8-6-6-6-6 2.8-6 6zm2 0l3-3h2l-2 2h5v2h-5l2 2h-2l-3-3z" id="iconBg"/><path class="icon-vs-fg" d="M4 8l3-3h2l-2 2h5v2h-5l2 2h-2l-3-3z" id="iconFg"/></svg>