<svg xmlns="http://www.w3.org/2000/svg" width="16" height="16"><style type="text/css">.icon-canvas-transparent{opacity:0;fill:#F6F6F6;} .icon-vs-out{fill:#F6F6F6;} .icon-vs-bg{fill:#424242;} .icon-vs-fg{fill:#F0EFF1;}</style><path class="icon-canvas-transparent" d="M16 16h-16v-16h16v16z" id="canvas"/><path class="icon-vs-out" d="M13 12.775l-2-1.199v3.205l-3.5-2.1-3.501 2.131v-11.812h2.001v-2h7v11.775z" id="outline"/><path class="icon-vs-bg" d="M12 11.01l-1-.6v-7.41h-4v-.99h5v9zm-2-6.994v9l-2.5-1.5-2.5 1.5v-9.016l5 .016zm-3.358 6.848l-.642-.641v1.027m3-1.027l-3-3v1.586l1.603 1.603.412.247.985.591v-1.027zm0-3l-2.207-2.207h-.793v.793l3 3v-1.586zm0-2.207h-.793l.793.793v-.793z" id="iconBg"/><path class="icon-vs-fg" d="M6 7.223l3 3v1.027l-1.397-.839-1.603-1.602v-1.586zm.642 3.641l-.642-.641v1.027l.642-.386zm1.565-5.848l.793.793v-.793h-.793zm-2.207 0v.793l3 3v-1.586l-2.207-2.207h-.793z" id="iconFg"/></svg>