<svg xmlns="http://www.w3.org/2000/svg" width="16" height="16"><style type="text/css">.icon-canvas-transparent{opacity:0;fill:#F6F6F6;} .icon-vs-out{fill:#F6F6F6;} .icon-vs-bg{fill:#424242;} .icon-vs-fg{fill:#F0EFF1;}</style><path class="icon-canvas-transparent" d="M16 16h-16v-16h16v16z" id="canvas"/><path class="icon-vs-out" d="M8 12.5l-4 2.5v-14h8v14l-4-2.5z" id="outline"/><path class="icon-vs-bg" d="M5 2v11l3-2 3 2v-11h-6zm1 9v-.793l.479.479m1.521-.998l-.667.438-1.333-1.333v-1.586l3.398 3.398m.602-.812l-4-4v-1.586l4 4v1.586zm0-3l-3.793-3.793h1.586l2.207 2.207v1.586zm0-3l-.793-.793h.793v.793z" id="iconBg"/><path class="icon-vs-fg" d="M6 11v-.793l.479.479-.479.314zm3.398-.394l-3.398-3.399v1.586l1.333 1.333.667-.438 1.398.918zm.602-2.399l-4-4v1.586l4 4v-1.586zm0-3l-2.207-2.207h-1.586l3.793 3.793v-1.586zm0-2.207h-.793l.793.793v-.793z" id="iconFg"/></svg>