<svg xmlns="http://www.w3.org/2000/svg" viewBox="0 0 16 16"><style>.icon-canvas-transparent{opacity:0;fill:#f6f6f6}.icon-vs-out{fill:#f6f6f6}.icon-folder{fill:#dcb67a}.icon-vs-fg{fill:#f0eff1}.icon-vs-action-blue{fill:#00539c}</style><path class="icon-canvas-transparent" d="M0 0h16v16H0V0z" id="canvas"/><path class="icon-vs-out" d="M16 6.5v8c0 .827-.673 1.5-1.5 1.5H2.504c-.827 0-1.5-.673-1.5-1.5V5H.012l-.037-3.015 3.5.009-.488-.46L4.518 0h1.348l3.001 3h1.747l1 2H14.5c.827 0 1.5.673 1.5 1.5z" id="outline"/><path class="icon-folder" d="M15 8H8l2.5 2.5L8 13h7v1.5a.5.5 0 0 1-.5.5H2.504a.5.5 0 0 1-.5-.5V5h1v1h.167l.986 1 1.062 1.077L7.119 6h2.759l-.5-1H8.034l.915-1h1.047l1 2H14.5a.5.5 0 0 1 .5.5V8z" id="iconBg"/><path class="icon-vs-fg" d="M3.82 5l-.803.844.154.156h-.167V5h.816zm5.558 0H8.034l-.915 1h2.759l-.5-1zM8 8l2.5 2.5L8 13h7V8H8z" id="iconFg"/><g id="colorAction"><path class="icon-vs-action-blue" d="M4.422 1.512L6 3 .988 2.987 1 4h5.153L4.409 5.831l.783.794 2.812-3.074L5.192.74z"/></g></svg>