<svg xmlns="http://www.w3.org/2000/svg" viewBox="0 0 16 16"><style>.st0{fill:#f6f6f6}.st1{fill:#424242}.st2{fill:#00539c}.st3{fill:#f0eff1}</style><path class="st0" d="M12.061 0H.586l2 2H0v4h2.586l-2 2H2v8h1.414L5 14.414 6.586 16H8v-2h6c1.299 0 2-1.031 2-2V3.556L12.061 0z" id="outline"/><g id="icon_x5F_bg"><path class="st1" d="M3 9h4v6l-2-2-2 2zM11.641 1H6.414l1 1H11v3h3v7H8v1h5.965c1 0 1.035-1 1.035-1V4l-3.359-3z"/></g><path class="st2" d="M5 1H3l2 2H1v2h4L3 7h2l3-3z" id="color_x5F_action"/><path class="st3" d="M11 5V2H7.414l2 2L6 7.414V8h2v4h6V5z" id="not_x5F_fg"/></svg>