<svg xmlns="http://www.w3.org/2000/svg" viewBox="0 0 16 16"><style>.st0{opacity:0}.st0,.st1{fill:#f6f6f6}.st2{fill:#424242}.st3{fill:#00539c}.st4{fill:#f0eff1}</style><g id="outline"><path class="st0" d="M0 0h16v16H0z"/><path class="st1" d="M11.061 0H3.586L0 3.586v.828l3 3V8H2v8h1.414L5 14.414 6.586 16H8v-2h5c1.299 0 2-1.029 2-2V3.556L11.061 0z"/></g><g id="icon_x5F_bg"><path class="st2" d="M3 15l2-2 2 2V9H3v6zM10.641 1H7.414l-1 1H10v3h3v7H8v1h4.965c1 0 1.035-1 1.035-1V4l-3.359-3z"/></g><path class="st3" d="M4 3l2-2H4L1 4l3 3h2L4 5h4V3z" id="color_x5F_importance"/><path class="st4" d="M10 5V2H9v4H6.414l2 2H8v4h5V5z" id="icon_x5F_fg"/></svg>