<svg xmlns="http://www.w3.org/2000/svg" width="16" height="16"><style type="text/css">.icon-canvas-transparent{opacity:0;fill:#F6F6F6;} .icon-vs-out{fill:#F6F6F6;} .icon-vs-bg{fill:#424242;} .icon-vs-fg{fill:#F0EFF1;} .icon-vs-action-blue{fill:#00539C;}</style><path class="icon-canvas-transparent" d="M16 16h-16v-16h16v16z" id="canvas"/><path class="icon-vs-out" d="M15 10h-2v2h-2v2h-9v-9h2v-2h2v-2h9v9z" id="outline"/><path class="icon-vs-bg" d="M14 2v7h-1v-6h-6v-1h7zm-9 2v1h6v6h1v-7h-7zm5 2v7h-7v-7h7zm-1 1h-5v5h5v-5z" id="iconBg"/><path class="icon-vs-fg" d="M4 7v5h5v-5h-5zm4 3h-3v-1h3v1z" id="iconFg"/><path class="icon-vs-action-blue" d="M8 10h-3v-1.031l3 .031v1z" id="colorAction"/></svg>