<?xml version="1.0" encoding="UTF-8" standalone="no"?>
<svg
   xmlns:dc="http://purl.org/dc/elements/1.1/"
   xmlns:cc="http://creativecommons.org/ns#"
   xmlns:rdf="http://www.w3.org/1999/02/22-rdf-syntax-ns#"
   xmlns:svg="http://www.w3.org/2000/svg"
   xmlns="http://www.w3.org/2000/svg"
   xmlns:sodipodi="http://sodipodi.sourceforge.net/DTD/sodipodi-0.dtd"
   xmlns:inkscape="http://www.inkscape.org/namespaces/inkscape"
   viewBox="0 0 16 16"
   enable-background="new 0 0 16 16"
   version="1.1"
   id="svg8"
   sodipodi:docname="Constructor.svg"
   inkscape:version="0.92.4 (5da689c313, 2019-01-14)">
  <metadata
     id="metadata14">
    <rdf:RDF>
      <cc:Work
         rdf:about="">
        <dc:format>image/svg+xml</dc:format>
        <dc:type
           rdf:resource="http://purl.org/dc/dcmitype/StillImage" />
        <dc:title></dc:title>
      </cc:Work>
    </rdf:RDF>
  </metadata>
  <defs
     id="defs12" />
  <sodipodi:namedview
     pagecolor="#ffffff"
     bordercolor="#666666"
     borderopacity="1"
     objecttolerance="10"
     gridtolerance="10"
     guidetolerance="10"
     inkscape:pageopacity="0"
     inkscape:pageshadow="2"
     inkscape:window-width="1920"
     inkscape:window-height="1017"
     id="namedview10"
     showgrid="false"
     inkscape:zoom="5.2149125"
     inkscape:cx="34.571566"
     inkscape:cy="-20.671176"
     inkscape:window-x="-8"
     inkscape:window-y="340"
     inkscape:window-maximized="1"
     inkscape:current-layer="svg8" />
  <style
     type="text/css"
     id="style2">.icon-canvas-transparent{opacity:0;fill:#F6F6F6;} .icon-vs-out{fill:#F6F6F6;} .icon-vs-fg{fill:#F0EFF1;} .icon-vs-action-purple{fill:#652D90;}</style>
  <path
     class="icon-canvas-transparent"
     d="M16 16h-16v-16h16v16z"
     id="canvas" />
  <path
     class="icon-vs-out"
     d="M15 3.349v8.403l-6.025 4.248h-.905l-7.07-4.418v-8.255l6.595-3.327h1.118l6.287 3.349z"
     id="outline" />
  <path
     class="icon-vs-fg"
     d="M12.715 4.398l-4.228 2.622-4.922-2.748 4.578-2.309 4.572 2.435zm-9.715.704l5 2.792v5.705l-5-3.125v-5.372zm6 8.434v-5.658l4-2.48v5.317l-4 2.821z"
     id="iconFg" />
  <path
     class="icon-vs-action-purple"
     d="M8.156.837l-6.156 3.105v7.085l6.517 4.073 5.483-3.867v-7.283l-5.844-3.113zm4.559 3.561l-4.228 2.622-4.922-2.748 4.578-2.309 4.572 2.435zm-9.715.704l5 2.792v5.705l-5-3.125v-5.372zm6 8.434v-5.658l4-2.48v5.317l-4 2.821z"
     id="iconBg"
     style="fill:#218022;fill-opacity:1" />
</svg>
