<svg xmlns="http://www.w3.org/2000/svg" viewBox="0 0 16 16"><style>.icon-canvas-transparent{opacity:0;fill:#f6f6f6}.icon-vs-out{fill:#f6f6f6}.icon-vs-fg{fill:#f0eff1}.icon-vs-action-purple{fill:#652d90}</style><path class="icon-canvas-transparent" d="M16 16H0V0h16v16z" id="canvas"/><path class="icon-vs-out" d="M2.75 16A2.752 2.752 0 0 1 0 13.25v-7.5A2.752 2.752 0 0 1 2.75 3H4v-.75A2.252 2.252 0 0 1 6.25 0h3.5C10.99 0 12 1.009 12 2.25V3h1.25A2.752 2.752 0 0 1 16 5.75v7.5A2.752 2.752 0 0 1 13.25 16H2.75z" id="outline"/><path class="icon-vs-action-purple" d="M13.25 4H11V2.25C11 1.56 10.44 1 9.75 1h-3.5C5.56 1 5 1.56 5 2.25V4H2.75C1.785 4 1 4.785 1 5.75v7.5c0 .965.785 1.75 1.75 1.75h10.5c.965 0 1.75-.785 1.75-1.75v-7.5C15 4.785 14.215 4 13.25 4zM4 13H3V6h1v7zm6-9H6V2.25A.25.25 0 0 1 6.25 2h3.5a.25.25 0 0 1 .25.25V4zm3 9h-1V6h1v7z" id="iconBg"/><g id="iconFg"><path class="icon-vs-fg" d="M4 13H3V6h1v7zm9 0h-1V6h1v7z"/></g></svg>