<svg xmlns="http://www.w3.org/2000/svg" viewBox="0 0 16 16" enable-background="new 0 0 16 16"><style type="text/css">.icon-canvas-transparent{opacity:0;fill:#F6F6F6;} .icon-vs-out{fill:#F6F6F6;} .icon-vs-bg{fill:#424242;} .icon-vs-fg{fill:#F0EFF1;} .icon-vs-action-purple{fill:#652D90;}</style><path class="icon-canvas-transparent" d="M16 16h-16v-16h16v16z" id="canvas"/><path class="icon-vs-out" d="M.167 8.426v-5.57l4.884-2.47 4.704 2.481v5.513l-4.464 3.272-5.124-3.226zm14.303.63l-.47.469v-4.525h-4v4.525l-.47-.47-1.53 1.531v1.889l3.525 3.525h.949l3.526-3.525v-1.889l-1.53-1.53z" id="outline"/><path class="icon-vs-fg" d="M4.995 2.188l3.07 1.514-2.864 1.718-3.095-1.766 2.889-1.466zm0 7.356v-3.573l-3.209-1.793v3.319l3.167 2.064v.016l.008-.008.01.008v-.015l.024-.018zm3.195-5.118l-2.576 1.566v3.463l2.576-1.856v-3.173z" id="iconFg"/><g id="iconBg"><path class="icon-vs-action-purple" d="M8.755 7.874v-4.403l-3.714-1.959-3.874 1.959v4.403l4.081 2.57 3.507-2.57zm-3.76-5.686l3.07 1.514-2.864 1.718-3.095-1.766 2.889-1.466zm-.024 7.374v.016l-.01-.008-.008.007v-.015l-3.167-2.065v-3.319l3.209 1.793v3.573l-.024.018zm3.219-1.963l-2.576 1.856v-3.463l2.576-1.566v3.173z"/><path class="icon-vs-bg" d="M13 9h-2v-1h2v1zm0-3h-2v1h2v-1zm1.47 4.47l-1.47 1.469v-1.939h-2v1.939l-1.47-1.47-1.06 1.061 3.53 3.53 3.53-3.53-1.06-1.06z"/></g></svg>