<svg xmlns="http://www.w3.org/2000/svg" viewBox="0 0 16 16"><style>.st0{opacity:0}.st0,.st1{fill:#f6f6f6}.st2{fill:#424242}.st3{fill:#f0eff1}</style><g id="outline"><path class="st0" d="M0 0h16v16H0z"/><path class="st1" d="M11 2V1H5v1H0v13h16V2z"/></g><g id="icon_x5F_bg"><path class="st2" d="M11 3v11h4V3h-4zm3 10h-2v-1h2v1zm0-2h-2v-1h2v1zm0-5h-2V4h2v2zM6 14h4V2H6v12zM7 3h2v1H7V3zm0 7h2v1H7v-1zm0 2h2v1H7v-1zM1 14h4V3H1v11zM2 4h2v2H2V4zm0 6h2v1H2v-1zm0 2h2v1H2v-1z"/></g><path class="st3" d="M14 13h-2v-1h2v1zm0-3h-2v1h2v-1zm0-6h-2v2h2V4zm-5 8H7v1h2v-1zm0-2H7v1h2v-1zm0-7H7v1h2V3zm-5 9H2v1h2v-1zm0-2H2v1h2v-1zm0-6H2v2h2V4z" id="icon_x5F_fg"/></svg>