<svg xmlns="http://www.w3.org/2000/svg" viewBox="0 0 16 16"><style>.st0{opacity:0}.st0,.st1{fill:#f6f6f6}.st2{fill:#424242}.st3{fill:#f0eff1}</style><g id="outline"><path class="st0" d="M0 0h16v16H0z"/><path class="st1" d="M16 0H1v6H0v10h9v-2h7z"/></g><g id="icon_x5F_bg"><path class="st2" d="M2 1v6H1v8h7v-2h7V1H2zm5 13H2V8h5v6zm7-2H8V7H3V2h11v10z"/><path class="st2" d="M5.527 9.379a1.073 1.073 0 0 0-.423-.295 1.649 1.649 0 0 0-.609-.102c-.119 0-.241.012-.368.033a3.194 3.194 0 0 0-.672.196 1.375 1.375 0 0 0-.213.113v.768c.158-.131.341-.235.544-.313.204-.078.413-.117.627-.117.213 0 .377.063.494.186.116.125.174.324.174.6l-1.03.154a1.631 1.631 0 0 0-.525.152 1.08 1.08 0 0 0-.562.66 1.557 1.557 0 0 0-.065.461c0 .17.025.322.074.463s.121.26.216.361c.093.1.21.178.352.234.14.057.298.084.479.084.229 0 .431-.053.604-.16a1.3 1.3 0 0 0 .439-.463l-.054.067v.529l.85.01v-2.514c0-.238-.027-.451-.083-.637a1.26 1.26 0 0 0-.249-.47zm-.925 2.879c-.089.067-.213.072-.337.072a.682.682 0 0 1-.242-.041.489.489 0 0 1-.302-.285.588.588 0 0 1-.041-.219c0-.086.01-.164.027-.233a.435.435 0 0 1 .098-.18A.553.553 0 0 1 4 11.24c.083-.033.189-.061.32-.078l.698-.109v.346c.001-.001-.096.617-.416.859z"/></g><path class="st3" d="M3 2v5h5v5h6V2z" id="icon_x5F_fg"/></svg>