<svg xmlns="http://www.w3.org/2000/svg" viewBox="0 0 16 16"><style>.icon-canvas-transparent{opacity:0;fill:#f6f6f6}.icon-vs-out{fill:#f6f6f6}.icon-vs-bg{fill:#424242}.icon-vs-fg{fill:#f0eff1}</style><path class="icon-canvas-transparent" d="M16 0v16H0V0h16z" id="canvas"/><path class="icon-vs-out" d="M16 6v10H4v-3H0V3h3V0h12v6h1z" id="outline"/><path class="icon-vs-bg" d="M2 7h2v1H2v1h2v1H2v1h2v1H1V4h10v2H2v1zm11-3h-1v1h1v1h1V1H4v2h9v1zm2 3v8H5V7h10zm-7 6H6v1h2v-1zm0-2H6v1h2v-1zm0-2H6v1h2V9zm3 4H9v1h2v-1zm0-2H9v1h2v-1zm0-2H9v1h2V9zm3 4h-2v1h2v-1zm0-2h-2v1h2v-1zm0-2h-2v1h2V9z" id="iconBg"/><g id="iconFg"><path class="icon-vs-fg" d="M2 6h2v1H2V6zm0 3h2V8H2v1zm4 5h2v-1H6v1zm7-9h-1v1h1V5zm0-2h-1v1h1V3zM2 11h2v-1H2v1zm4 1h2v-1H6v1zm3 2h2v-1H9v1zm-3-4h2V9H6v1zm6 4h2v-1h-2v1zm0-5v1h2V9h-2zm0 3h2v-1h-2v1zm-3 0h2v-1H9v1zm0-2h2V9H9v1z"/></g></svg>