<?xml version="1.0" encoding="UTF-8" standalone="no"?>
<svg
   viewBox="0 0 16 16"
   version="1.1"
   id="svg4"
   sodipodi:docname="MetadataFile.svg"
   xml:space="preserve"
   inkscape:version="1.3.1 (91b66b0783, 2023-11-16)"
   xmlns:inkscape="http://www.inkscape.org/namespaces/inkscape"
   xmlns:sodipodi="http://sodipodi.sourceforge.net/DTD/sodipodi-0.dtd"
   xmlns="http://www.w3.org/2000/svg"
   xmlns:svg="http://www.w3.org/2000/svg"><defs
     id="defs4" /><sodipodi:namedview
     id="namedview4"
     pagecolor="#ffffff"
     bordercolor="#000000"
     borderopacity="0.25"
     inkscape:showpageshadow="2"
     inkscape:pageopacity="0.0"
     inkscape:pagecheckerboard="0"
     inkscape:deskcolor="#d1d1d1"
     inkscape:zoom="12.828125"
     inkscape:cx="24.672351"
     inkscape:cy="7.6004872"
     inkscape:window-width="1920"
     inkscape:window-height="1017"
     inkscape:window-x="-8"
     inkscape:window-y="-8"
     inkscape:window-maximized="1"
     inkscape:current-layer="svg4" /><style
     id="style1">.st0{opacity:0}.st0,.st1{fill:#f6f6f6}.st2{fill:#424242}.st3{fill:#f0eff1}</style><g
     id="outline"
     style="display:inline"><path
       class="st0"
       d="M 0,0 H 16 V 16 H 0 Z"
       id="path1"
       style="display:inline" /><path
       class="st1"
       d="M 10.023,1 H 3.964 C 3.012,1 2,1.701 2,3 V 8.556 C 0.81,9.25 0,10.525 0,12 c 0,2.206 1.794,4 4,4 a 3.971,3.971 0 0 0 2.618,-1 h 5.347 C 13.407,15 13.972,13.825 14,13 V 4.552 Z"
       id="path2"
       style="display:inline" /></g><g
     id="icon_x5F_bg"><path
       class="st2"
       d="M 6,6 H 8 V 7 H 6 Z M 6,8 V 8.555 C 6.222,8.684 6.428,8.832 6.62,9 H 10 V 8 Z m 1.858,3 H 10 V 10 H 7.445 c 0.181,0.311 0.321,0.644 0.413,1 z"
       id="path3"
       style="display:inline" /><path
       class="st2"
       d="M 9.641,2 H 3.964 C 3.964,2 3,2 3,3 V 8.142 A 3.978,3.978 0 0 1 4,8 V 3 h 5 v 3 h 3 v 7 H 7.858 a 3.945,3.945 0 0 1 -0.414,1 h 4.521 C 12.965,14 13,13 13,13 V 5 Z"
       id="path4"
       style="display:inline" /></g><path
     class="st3"
     d="M9 6V3H4v5c.735 0 1.417.213 2.009.562L6 8.555V8h4v1H6.62c-.005-.005-.012-.008-.018-.013.344.298.633.649.86 1.047-.006-.011-.01-.023-.017-.034H10v1H7.858l-.005-.017c.086.328.147.663.147 1.017 0 .348-.059.679-.142 1H12V6H9zM8 7H6V6h2v1z"
     id="icon_x5F_fg" /><style
     id="style1-9">.st0{opacity:0}.st0,.st1{fill:#f6f6f6}.st2{fill:#424242}.st3{fill:#f0eff1}</style><style
     type="text/css"
     id="style1-2">.icon-canvas-transparent{opacity:0;fill:#F6F6F6;} .icon-vs-out{fill:#F6F6F6;} .icon-vs-fg{fill:#F0EFF1;} .icon-vs-bg{fill:#424242;}</style><g
     id="g4"
     transform="matrix(0.5,0,0,0.5,0,8)"
     style="display:inline"><g
       id="outline-9"><path
         class="st0"
         d="M 0,0 H 16 V 16 H 0 Z"
         id="path1-3" /><path
         class="st1"
         d="m 15,4.465 v 7.07 L 8.303,16 H 7.697 L 1,11.535 V 4.465 L 7.697,0 h 0.605 z"
         id="path2-8" /></g><path
       class="st2"
       d="M 8,1 2,5 v 6 l 6,4 6,-4 V 5 Z m 0,1.201 4.648,3.1 -1.892,1.261 -4.654,-3.095 z m -0.5,11.264 -4.5,-3 v -1.53 l 4.5,3 z m 0,-2.733 -4.5,-3 V 6.268 l 4.5,3 z M 3.353,5.301 5.202,4.069 9.855,7.163 8,8.398 Z m 9.647,5.164 -4.5,3 v -1.53 l 4.5,-3 z m 0,-2.733 -4.5,3 V 9.268 l 4.5,-3 z"
       id="icon_x5F_bg-2" /><g
       id="icon_x5F_fg-1"><path
         class="st3"
         d="m 8,2.201 4.648,3.1 -1.892,1.261 -4.654,-3.095 z m -0.5,11.264 -4.5,-3 v -1.53 l 4.5,3 z m 0,-2.733 -4.5,-3 V 6.268 l 4.5,3 z M 3.353,5.301 5.201,4.068 9.854,7.162 8,8.398 Z m 9.647,5.164 -4.5,3 v -1.53 l 4.5,-3 z m 0,-2.733 -4.5,3 V 9.268 l 4.5,-3 z"
         id="path3-0" /></g></g></svg>
