<svg xmlns="http://www.w3.org/2000/svg" viewBox="0 0 16 16"><style>.icon-canvas-transparent{opacity:0;fill:#f6f6f6}.icon-vs-out{fill:#f6f6f6}.icon-vs-bg{fill:#424242}.icon-vs-fg{fill:#f0eff1}</style><path class="icon-canvas-transparent" d="M16 16H0V0h16v16z" id="canvas"/><path class="icon-vs-out" d="M16 1v14h-4.78c-.55.609-1.337 1-2.22 1H5c-.884 0-1.674-.39-2.223-1H1v-1.796A2.977 2.977 0 0 1 0 11c0-.883.391-1.67 1-2.22V1h15z" id="outline"/><path class="icon-vs-fg" d="M7 8h3v2h-.174A3.004 3.004 0 0 0 7 8zm0-1h3V5H7v2zM3 7h3V5H3v2zm8-2v2h3V5h-3zm1 8h2v-2h-2.798c.497.544.798 1.249.798 2zm-1-3h3V8h-3v2z" id="iconFg"/><g id="iconBg"><path class="icon-vs-bg" d="M15 2v12h-3.184c.112-.314.184-.648.184-1h2v-2h-2.798a2.996 2.996 0 0 0-.738-.607l-.621-.35c-.004-.015-.012-.028-.017-.043H10V8H3c-.352 0-.686.072-1 .184V2h13zM6 5H3v2h3V5zm4 0H7v2h3V5zm4 3h-3v2h3V8zm0-3h-3v2h3V5zm-4.027 6.264a2.965 2.965 0 0 1-.275 1.024A.99.99 0 0 1 10 13a1 1 0 0 1-1 1H5a1.001 1.001 0 0 1 0-2l1-1H5c-1.103 0-2 .897-2 2 0 1.102.897 2 2 2h4c1.102 0 2-.898 2-2 0-.748-.417-1.393-1.027-1.736zM3 10h4a1.001 1.001 0 0 1 0 2l-1 1h1c1.102 0 2-.897 2-2s-.898-2-2-2H3c-1.103 0-2 .897-2 2 0 .748.417 1.393 1.027 1.736a2.96 2.96 0 0 1 .275-1.024A.99.99 0 0 1 2 11c0-.551.449-1 1-1z"/></g></svg>