<svg xmlns="http://www.w3.org/2000/svg" viewBox="0 0 16 16" enable-background="new 0 0 16 16"><style type="text/css">.icon-canvas-transparent{opacity:0;fill:#F6F6F6;} .icon-vs-out{fill:#F6F6F6;} .icon-vs-fg{fill:#F0EFF1;} .icon-vs-action-purple{fill:#652D90;}</style><path class="icon-canvas-transparent" d="M16 16h-16v-16h16v16z" id="canvas"/><path class="icon-vs-out" d="M15 3.349v8.403l-6.025 4.248h-.905l-7.07-4.418v-8.255l6.595-3.327h1.118l6.287 3.349z" id="outline"/><path class="icon-vs-fg" d="M12.715 4.398l-4.228 2.622-4.922-2.748 4.578-2.309 4.572 2.435zm-9.715.704l5 2.792v5.705l-5-3.125v-5.372zm6 8.434v-5.658l4-2.48v5.317l-4 2.821z" id="iconFg"/><path class="icon-vs-action-purple" d="M8.156.837l-6.156 3.105v7.085l6.517 4.073 5.483-3.867v-7.283l-5.844-3.113zm4.559 3.561l-4.228 2.622-4.922-2.748 4.578-2.309 4.572 2.435zm-9.715.704l5 2.792v5.705l-5-3.125v-5.372zm6 8.434v-5.658l4-2.48v5.317l-4 2.821z" id="iconBg"/></svg>