<svg xmlns="http://www.w3.org/2000/svg" viewBox="0 0 16 16"><style>.icon-canvas-transparent{opacity:0;fill:#f6f6f6}.icon-vs-out{fill:#f6f6f6}.icon-folder{fill:#dcb67a}.icon-vs-action-blue{fill:#00539c}</style><path class="icon-canvas-transparent" d="M16 0v16H0V0h16z" id="canvas"/><path class="icon-vs-out" d="M16 9v1.196L13.677 16H2s-.86-.021-1.43-.566C.227 15.102 0 14.617 0 14V5c0-1.303 1.005-2 2-2h2.486l-.879-.879L5.729 0l4.518 4.518-.248.247.117.235H13c.97 0 2 .701 2 2v2h1z" id="outline"/><path class="icon-folder" d="M2 15.016h-.003c-.057 0-.997-.015-.997-.985V8.959c.286.293.627.528 1 .707v5.35zm12-4.985v-3c0-1-1.236-1-1-1H9.5l-.256-.511-.666.666.422.845h4v3H4l-2 5h11l2-5h-1z" id="iconBg"/><g id="colorAction"><path class="icon-vs-action-blue" d="M8.832 4.518L5.728 7.621l-.706-.707 1.897-1.896H3.5c-.827 0-1.5.673-1.5 1.5s.673 1.5 1.5 1.5v1a2.503 2.503 0 0 1-2.5-2.5c0-1.378 1.122-2.5 2.5-2.5h3.418L5.022 2.121l.707-.707 3.103 3.104z"/></g></svg>