<svg xmlns="http://www.w3.org/2000/svg" viewBox="0 0 16 16"><style>.st0{opacity:0}.st0,.st1{fill:#f6f6f6}.st2{fill:#424242}.st3{fill:#f0eff1}</style><g id="outline"><path class="st0" d="M0 0h16v16H0z"/><path class="st1" d="M10.023 1H3.964C3.012 1 2 1.701 2 3v5.556C.81 9.25 0 10.525 0 12c0 2.206 1.794 4 4 4a3.971 3.971 0 0 0 2.618-1h5.347c1.442 0 2.007-1.175 2.035-2V4.552L10.023 1z"/></g><g id="icon_x5F_bg"><path class="st2" d="M6 6h2v1H6zM6 8v.555c.222.129.428.277.62.445H10V8H6zM7.858 11H10v-1H7.445c.181.311.321.644.413 1z"/><circle class="st2" cx="4" cy="12" r="3"/><path class="st2" d="M9.641 2H3.964S3 2 3 3v5.142A3.978 3.978 0 0 1 4 8V3h5v3h3v7H7.858a3.945 3.945 0 0 1-.414 1h4.521c1 0 1.035-1 1.035-1V5L9.641 2z"/></g><path class="st3" d="M9 6V3H4v5c.735 0 1.417.213 2.009.562L6 8.555V8h4v1H6.62c-.005-.005-.012-.008-.018-.013.344.298.633.649.86 1.047-.006-.011-.01-.023-.017-.034H10v1H7.858l-.005-.017c.086.328.147.663.147 1.017 0 .348-.059.679-.142 1H12V6H9zM8 7H6V6h2v1z" id="icon_x5F_fg"/></svg>