<svg xmlns="http://www.w3.org/2000/svg" viewBox="0 0 16 16"><style>.st0{opacity:0;fill:#424242}.st1{fill:#f6f6f6}.st2{fill:#424242}.st3{fill:#f0eff1}.st4{fill:#424242;stroke:#424242;stroke-width:.2;stroke-miterlimit:10}.st5{fill:#efeef0}</style><g id="outline"><path class="st0" d="M0 0h16v16H0z"/><path class="st1" d="M12.982 0H7.941C7.001 0 6 .701 6 2H2.941C2.001 2 1 2.701 1 4v3H0v9h12.942c1.426 0 2.011-1.161 2.059-2V8.875h1V2.688L12.982 0z"/></g><g id="icon_x5F_bg"><circle class="st2" cx="5.75" cy="10.25" r=".75"/><path class="st2" d="M1 8v7h7V8H1zm1 6l1.5-1.5 2 1.5H2zm5-.5L3.5 11 2 12.5V9h5v4.5zM15.023 3.136L12.625 1h-4.66s-.941 0-.941 1h5v2h2v3.241l.755.635h.245v-4.74zM3.023 7V4h4v1H9.87L7.625 3h-4.66s-.941 0-.941 1v3h.999z"/><path class="st2" d="M11.625 6h-4.66s-.941 0-.941 1H11.023v2h2v5H9v1h3.965c1 0 1.059-1 1.059-1V8.137L11.625 6z"/></g><g id="icon_x5F_fg"><path class="st3" d="M2 14h3.5l-2-1.5z"/><path class="st3" d="M2 9v3.5L3.5 11 7 13.5V9H2zm3.75 2a.75.75 0 1 1 0-1.5.75.75 0 0 1 0 1.5z"/><circle class="st4" cx="5.75" cy="10.25" r=".75"/><path class="st5" d="M8 2h3.936v1.96L14 3.996v3.225L8.023 2M5 7c0-1.27.986-1.964 1.936-1.994V4H3v3h2zM10.936 8.96V7H9v7h4V8.996z"/></g></svg>