<svg xmlns="http://www.w3.org/2000/svg" viewBox="0 0 16 16"><style>.icon-canvas-transparent{opacity:0;fill:#f6f6f6}.icon-vs-out{fill:#f6f6f6}.icon-vs-fg{fill:#f0eff1}.icon-vs-action-blue{fill:#00539c}</style><path class="icon-canvas-transparent" d="M16 0v16H0V0h16z" id="canvas"/><path class="icon-vs-out" d="M16 2v14H2.586L0 13.414V2C0 .897.897 0 2 0h12c1.102 0 2 .897 2 2z" id="outline"/><path class="icon-vs-fg" d="M13 3v4H3V3h10zm-9 7v5h2v-3h2v3h4v-5H4z" id="iconFg"/><g id="iconBg"><path class="icon-vs-action-blue" d="M6 12h2v3H6v-3zm9-10v13h-3v-5H4v5H3l-2-2V2a1 1 0 0 1 1-1h12a1 1 0 0 1 1 1zm-2 1H3v4h10V3z"/></g></svg>