<?xml version="1.0" encoding="UTF-8" standalone="no"?>
<svg
   xmlns:dc="http://purl.org/dc/elements/1.1/"
   xmlns:cc="http://creativecommons.org/ns#"
   xmlns:rdf="http://www.w3.org/1999/02/22-rdf-syntax-ns#"
   xmlns:svg="http://www.w3.org/2000/svg"
   xmlns="http://www.w3.org/2000/svg"
   xmlns:sodipodi="http://sodipodi.sourceforge.net/DTD/sodipodi-0.dtd"
   xmlns:inkscape="http://www.inkscape.org/namespaces/inkscape"
   width="16"
   height="16"
   version="1.1"
   id="svg8"
   sodipodi:docname="PrivateInternal.svg"
   inkscape:version="0.92.4 (5da689c313, 2019-01-14)">
  <metadata
     id="metadata14">
    <rdf:RDF>
      <cc:Work
         rdf:about="">
        <dc:format>image/svg+xml</dc:format>
        <dc:type
           rdf:resource="http://purl.org/dc/dcmitype/StillImage" />
        <dc:title></dc:title>
      </cc:Work>
    </rdf:RDF>
  </metadata>
  <defs
     id="defs12" />
  <sodipodi:namedview
     pagecolor="#ffffff"
     bordercolor="#666666"
     borderopacity="1"
     objecttolerance="10"
     gridtolerance="10"
     guidetolerance="10"
     inkscape:pageopacity="0"
     inkscape:pageshadow="2"
     inkscape:window-width="2560"
     inkscape:window-height="1377"
     id="namedview10"
     showgrid="false"
     showguides="true"
     inkscape:guide-bbox="true"
     inkscape:zoom="45.254834"
     inkscape:cx="16.343818"
     inkscape:cy="10.02076"
     inkscape:window-x="1912"
     inkscape:window-y="-8"
     inkscape:window-maximized="1"
     inkscape:current-layer="svg8" />
  <style
     type="text/css"
     id="style2">.icon-canvas-transparent{opacity:0;fill:#F6F6F6;} .icon-vs-out{fill:#F6F6F6;} .icon-vs-bg{fill:#424242;} .icon-vs-action-blue{fill:#00539C;}</style>
  <path
     inkscape:connector-curvature="0"
     class="icon-canvas-transparent"
     d="M 15.999146,8.0238065 H -8.5454898e-4 V -7.9761938 H 15.999146 Z"
     id="canvas"
     style="opacity:0;fill:#f6f6f6" />
  <path
     class="icon-vs-out"
     d="M 15.999146,3.603855 V 9.5706026 H 7.6456992 V 3.5979002 H 7.7650341 C 7.9214321,2.2069058 7.9595131,0.03215991 11.729341,0.03215991 l 0.205257,-0.0083534 c 3.317511,0 3.830651,2.18024969 3.97266,3.58004859 z"
     id="outline"
     inkscape:connector-curvature="0"
     style="fill:#f6f6f6;stroke-width:1.19334948"
     sodipodi:nodetypes="ccccccccc" />
  <path
     inkscape:connector-curvature="0"
     class="icon-vs-bg"
     d="M 8.8605292,4.2375236 C 9.0156647,2.8950054 9.0753321,1.217156 11.934598,1.217156 c 2.657589,0 2.726803,1.6850095 2.828238,3.0203676 H 13.61006 C 13.593353,3.3472849 13.425091,2.398572 11.934598,2.398572 c -1.480947,0 -1.809118,0.9689998 -1.879526,1.8389516 z M 14.805796,4.7972045 V 8.3772531 H 8.8390487 V 4.7972045 Z m -2.386699,1.1933496 h -1.193349 v 1.1933495 h 1.193349 z"
     id="notificationBg"
     style="fill:#424242;stroke-width:1.19334948" />
  <path
     inkscape:connector-curvature="0"
     class="icon-vs-fg"
     d="m 11.225748,5.9905541 h 1.193349 v 1.1933495 h -1.193349 z"
     id="notificationFg"
     style="fill:#f0eff1;fill-opacity:1;stroke-width:1.19334948" />
  <path
     inkscape:connector-curvature="0"
     class="icon-canvas-transparent"
     d="M 8.4869905,16.022097 H -1.1167907e-7 V 7.5351065 H 8.4869905 Z"
     id="canvas-5"
     style="opacity:0;fill:#f6f6f6;stroke-width:0.53043687"
     inkscape:label="canvas" />
  <path
     inkscape:connector-curvature="0"
     class="icon-vs-out"
     d="M 3.8573369,15.612069 C 3.7427632,15.490599 1.053978,12.636318 0.62326331,12.153621 0.22914866,11.681002 -1.1167907e-7,11.029625 -1.1167907e-7,10.397344 -1.1167907e-7,9.0256336 1.239631,7.8220729 2.6521847,7.8220729 c 0.460419,0 1.061404,0.1628442 1.5913099,0.8274816 0.5299071,-0.6646374 1.130892,-0.8274816 1.5913111,-0.8274816 1.4125543,0 2.6521848,1.2035607 2.6521848,2.5752711 0,0.63175 -0.2296792,1.283658 -0.6137153,1.743016 -0.4418546,0.495428 -3.129048,3.349708 -3.2430914,3.471178 l -0.3866892,0.410559 z"
     id="outline-2"
     style="fill:#f6f6f6;stroke-width:0.53043687"
     inkscape:label="outline" />
  <path
     inkscape:connector-curvature="0"
     class="icon-vs-bg"
     d="m 7.956553,10.397344 c 0,0.516115 -0.1888351,1.042308 -0.4901226,1.403005 -0.4307155,0.482699 -3.2229358,3.44784 -3.2229358,3.44784 0,0 -2.7938103,-2.965141 -3.223995,-3.44784 -0.30128808,-0.360697 -0.48906275,-0.88689 -0.48906275,-1.403005 0,-1.1292998 1.04124775,-2.0448342 2.12174785,-2.0448342 0.7823937,0 1.2778225,0.632281 1.5913099,1.3260919 0.3134886,-0.6938109 0.8078555,-1.3260919 1.5913111,-1.3260919 1.0815608,0 2.1217473,0.9160648 2.1217473,2.0448342 z"
     id="iconBg-1"
     style="fill:#424242;stroke-width:0.53043687"
     inkscape:label="iconBg" />
</svg>
