<svg xmlns="http://www.w3.org/2000/svg" width="16" height="16"><style type="text/css">.icon-canvas-transparent{opacity:0;fill:#F6F6F6;} .icon-vs-out{fill:#F6F6F6;} .icon-vs-bg{fill:#424242;} .icon-vs-fg{fill:#F0EFF1;} .icon-vs-action-blue{fill:#00539C;}</style><path class="icon-canvas-transparent" d="M16 16h-16v-16h16v16z" id="canvas"/><path class="icon-vs-out" d="M16 5v6l-4 4-4-4v1l-1.552 1h1.552v3h-7v-2.414l1.586-1.586h-1.586v-3h-1v-9h9v6l1 1v-4h4v4l2-2z" id="outline"/><path class="icon-vs-bg" d="M2 11h3l-3 3v1h5v-1h-2.987l2.987-2.949-.048-.051h.048v-1h-5v1zm2.5-7.75l.7 1.75h-1.4l.7-1.75zm3.5-2.25v7h-7v-7h7zm-1 6l-2-5h-1l-2 5h1l.399-1h2.201l.4 1h1z" id="iconBg"/><path class="icon-vs-fg" d="M6 7h1l-2-5h-1l-2 5h1l.399-1h2.201l.4 1zm-2.2-2l.7-1.75.7 1.75h-1.4z" id="iconFg"/><path class="icon-vs-action-blue" d="M15 8v2l-3 3-3-3v-2l2 2v-6h2v6l2-2z" id="colorAction"/></svg>