<?xml version="1.0" encoding="UTF-8" standalone="no"?><!DOCTYPE svg PUBLIC "-//W3C//DTD SVG 1.1//EN" "http://www.w3.org/Graphics/SVG/1.1/DTD/svg11.dtd"><svg width="100%" height="100%" viewBox="0 0 16 16" version="1.1" xmlns="http://www.w3.org/2000/svg" xmlns:xlink="http://www.w3.org/1999/xlink" xml:space="preserve" xmlns:serif="http://www.serif.com/" style="fill-rule:evenodd;clip-rule:evenodd;stroke-linejoin:round;stroke-miterlimit:2;"><rect id="canvas" x="0" y="0" width="16" height="16" style="fill:#f6f6f6;fill-opacity:0;fill-rule:nonzero;"/><path id="outline" d="M6.814,1.841l2.474,0l4.948,4.948l0,1.099l-2.199,2.199l-1.924,0l0,4.123l-4.124,0l0,-4.123l-1.924,0l-2.199,-2.199l0,-1.099l4.948,-4.948Z" style="fill:#f6f6f6;fill-rule:nonzero;"/><path id="iconBg" d="M3.241,7.338l1.374,1.375l2.749,0l0,4.123l1.374,0l0,-4.123l2.749,0l1.374,-1.375l-4.123,-4.123l-1.374,0l-4.123,4.123Zm4.947,-2.748l2.749,2.748l-5.772,0l2.749,-2.748l0.274,0Z" style="fill:#424242;fill-rule:nonzero;"/><path id="iconFg" d="M5.165,7.338l2.749,-2.748l0.274,0l2.749,2.748l-5.772,0" style="fill:#f0eff1;fill-rule:nonzero;"/></svg>