<svg xmlns="http://www.w3.org/2000/svg" viewBox="0 0 16 16" enable-background="new 0 0 16 16"><style type="text/css">.icon-canvas-transparent{opacity:0;fill:#F6F6F6;} .icon-vs-out{fill:#F6F6F6;} .icon-vs-bg{fill:#424242;} .icon-vs-action-blue{fill:#00539C;}</style><path class="icon-canvas-transparent" d="M16 16h-16v-16h16v16z" id="canvas"/><path class="icon-vs-out" d="M10 3v.879l-3.646-3.647-2.122 2.122 1.647 1.646h-5.879v3h5.879l-1.647 1.646.354.354h-2.586v3h4v3h9v-3h-1v-3h1v-3h1v-3h-6zm-1.879 6l.879-.879v.879h-.879z" id="outline"/><path class="icon-vs-bg" d="M15 4v1h-4v-1h4zm-1 3h-4v1h4v-1zm-1 3h-10v1h10v-1zm-6 4h7v-1h-7v1z" id="iconBg"/><path class="icon-vs-action-blue" d="M10.207 5.5l-3.853 3.854-.708-.708 2.647-2.646h-7.293v-1h7.293l-2.647-2.646.707-.707 3.854 3.853z" id="colorAction"/></svg>