<?xml version="1.0" encoding="UTF-8" standalone="no"?>
<svg
   xmlns:dc="http://purl.org/dc/elements/1.1/"
   xmlns:cc="http://creativecommons.org/ns#"
   xmlns:rdf="http://www.w3.org/1999/02/22-rdf-syntax-ns#"
   xmlns:svg="http://www.w3.org/2000/svg"
   xmlns="http://www.w3.org/2000/svg"
   xmlns:sodipodi="http://sodipodi.sourceforge.net/DTD/sodipodi-0.dtd"
   xmlns:inkscape="http://www.inkscape.org/namespaces/inkscape"
   width="100%"
   height="100%"
   viewBox="0 0 16 16"
   version="1.1"
   xml:space="preserve"
   style="fill-rule:evenodd;clip-rule:evenodd;stroke-linejoin:round;stroke-miterlimit:2;"
   id="svg34"
   sodipodi:docname="AssemblyListGAC.svg"
   inkscape:version="0.92.2 (5c3e80d, 2017-08-06)"><metadata
     id="metadata40"><rdf:RDF><cc:Work
         rdf:about=""><dc:format>image/svg+xml</dc:format><dc:type
           rdf:resource="http://purl.org/dc/dcmitype/StillImage" /><dc:title></dc:title></cc:Work></rdf:RDF></metadata><defs
     id="defs38" /><sodipodi:namedview
     pagecolor="#ffffff"
     bordercolor="#666666"
     borderopacity="1"
     objecttolerance="10"
     gridtolerance="10"
     guidetolerance="10"
     inkscape:pageopacity="0"
     inkscape:pageshadow="2"
     inkscape:window-width="2736"
     inkscape:window-height="1719"
     id="namedview36"
     showgrid="false"
     inkscape:zoom="59"
     inkscape:cx="8.247759"
     inkscape:cy="7.9816404"
     inkscape:window-x="-13"
     inkscape:window-y="-13"
     inkscape:window-maximized="1"
     inkscape:current-layer="g32" /><g
     id="g32"><rect
       id="canvas"
       x="0"
       y="0"
       width="16"
       height="16"
       style="fill:#f6f6f6;fill-opacity:0;fill-rule:nonzero" /><path
       id="outline"
       d="m 16,6 v 9 H 8 V 12 H 6 v 2 H 0 V 7 H 2.019 V 6 H 0 V 2.018 H 2.019 V 0 H 6 V 2.018 H 8 V 6 H 6 V 9 H 8 V 6 Z"
       style="fill:#f6f6f6;fill-rule:nonzero"
       inkscape:connector-curvature="0" /><path
       id="iconBg"
       d="M 15,14 H 9 V 7 h 6 z M 5,8 H 1 v 5 h 4 z m 3,2 H 6 v 1 h 2 z"
       style="fill:#424242;fill-rule:nonzero"
       inkscape:connector-curvature="0" /><path
       id="colorAction"
       d="M 7,3.018 H 5 V 1 H 3.019 V 3.018 H 1 V 5 H 3.019 V 7 H 5 V 5 h 2 z"
       style="fill:#388a34;fill-rule:nonzero"
       inkscape:connector-curvature="0" /><rect
       style="opacity:1;fill:#f6f6f6;fill-opacity:1;fill-rule:nonzero;stroke:#f6f6f6;stroke-width:0.92304718;stroke-linecap:round;stroke-linejoin:round;stroke-miterlimit:2;stroke-dasharray:none;stroke-opacity:1;paint-order:stroke markers fill"
       id="rect855"
       width="2.7318411"
       height="2.2501209"
       x="12.115051"
       y="12.119209" /><rect
       style="clip-rule:evenodd;opacity:1;fill:#f6f6f6;fill-opacity:1;fill-rule:nonzero;stroke:#f6f6f6;stroke-width:1.21481812;stroke-linecap:round;stroke-linejoin:round;stroke-miterlimit:2;stroke-dasharray:none;stroke-opacity:1;paint-order:stroke markers fill"
       id="rect855-8"
       width="4.7318411"
       height="2.2501209"
       x="3.2681589"
       y="12" /><g
       transform="matrix(0.49383216,0,0,0.49383216,-2.0893099,13.325593)"
       id="g30"
       style="fill:#090909;fill-opacity:1;stroke:#f6f6f6;stroke-width:2.87553644;stroke-miterlimit:2;stroke-dasharray:none;stroke-opacity:1;paint-order:stroke markers fill"><g
         transform="matrix(12,0,0,12,8.70948,4.01501)"
         id="g8"
         style="fill:#090909;fill-opacity:1;stroke:#f6f6f6;stroke-width:0.23962803;stroke-miterlimit:2;stroke-dasharray:none;stroke-opacity:1;paint-order:stroke markers fill"><path
           d="M 0.412,-0.281 V -0.365 H 0.715 V -0.1 c -0.046,0.038 -0.094,0.065 -0.144,0.084 -0.049,0.019 -0.1,0.028 -0.152,0.028 -0.07,0 -0.134,-0.015 -0.192,-0.045 -0.057,-0.03 -0.101,-0.074 -0.13,-0.131 -0.029,-0.057 -0.044,-0.12 -0.044,-0.19 0,-0.07 0.015,-0.135 0.044,-0.196 0.029,-0.06 0.071,-0.105 0.126,-0.134 0.054,-0.029 0.117,-0.044 0.189,-0.044 0.051,0 0.098,0.008 0.14,0.025 0.042,0.017 0.075,0.04 0.098,0.07 0.024,0.03 0.042,0.069 0.055,0.117 L 0.619,-0.492 C 0.608,-0.529 0.595,-0.557 0.579,-0.578 0.563,-0.599 0.54,-0.616 0.511,-0.628 0.481,-0.641 0.448,-0.647 0.412,-0.647 0.369,-0.647 0.331,-0.64 0.3,-0.627 0.268,-0.614 0.243,-0.597 0.223,-0.575 0.204,-0.554 0.189,-0.53 0.178,-0.504 0.16,-0.46 0.151,-0.412 0.151,-0.36 c 0,0.063 0.011,0.117 0.033,0.16 0.022,0.043 0.054,0.075 0.096,0.096 0.042,0.02 0.086,0.031 0.134,0.031 0.041,0 0.081,-0.008 0.12,-0.024 0.039,-0.016 0.068,-0.033 0.089,-0.05 v -0.134 z"
           style="fill:#090909;fill-opacity:1;fill-rule:nonzero;stroke:#f6f6f6;stroke-width:0.23962803;stroke-miterlimit:2;stroke-dasharray:none;stroke-opacity:1;paint-order:stroke markers fill"
           id="path6"
           inkscape:connector-curvature="0" /></g><g
         transform="matrix(12,0,0,12,18.0435,4.01501)"
         id="g12"
         style="fill:#090909;fill-opacity:1;stroke:#f6f6f6;stroke-width:0.23962803;stroke-miterlimit:2;stroke-dasharray:none;stroke-opacity:1;paint-order:stroke markers fill"><path
           d="M -0.001,0 0.273,-0.716 H 0.375 L 0.668,0 H 0.561 L 0.477,-0.217 H 0.178 L 0.099,0 Z M 0.205,-0.294 H 0.448 L 0.373,-0.492 C 0.35,-0.552 0.333,-0.602 0.322,-0.641 0.313,-0.595 0.3,-0.549 0.284,-0.504 Z"
           style="fill:#090909;fill-opacity:1;fill-rule:nonzero;stroke:#f6f6f6;stroke-width:0.23962803;stroke-miterlimit:2;stroke-dasharray:none;stroke-opacity:1;paint-order:stroke markers fill"
           id="path10"
           inkscape:connector-curvature="0" /></g><g
         transform="matrix(12,0,0,12,26.0474,4.01501)"
         id="g16"
         style="fill:#090909;fill-opacity:1;stroke:#f6f6f6;stroke-width:0.23962803;stroke-miterlimit:2;stroke-dasharray:none;stroke-opacity:1;paint-order:stroke markers fill"><path
           d="m 0.588,-0.251 0.095,0.024 C 0.663,-0.149 0.627,-0.09 0.575,-0.049 0.524,-0.008 0.461,0.012 0.386,0.012 0.309,0.012 0.246,-0.003 0.198,-0.035 0.15,-0.066 0.113,-0.112 0.088,-0.171 0.062,-0.231 0.05,-0.295 0.05,-0.363 c 0,-0.075 0.014,-0.14 0.043,-0.195 0.028,-0.056 0.069,-0.098 0.121,-0.127 0.053,-0.029 0.111,-0.043 0.174,-0.043 0.071,0 0.132,0.018 0.18,0.055 0.049,0.036 0.083,0.087 0.102,0.153 L 0.577,-0.498 C 0.561,-0.55 0.536,-0.588 0.505,-0.611 0.473,-0.635 0.434,-0.647 0.386,-0.647 c -0.055,0 -0.101,0.013 -0.138,0.04 -0.037,0.026 -0.063,0.061 -0.078,0.106 -0.015,0.044 -0.023,0.09 -0.023,0.137 0,0.061 0.009,0.114 0.027,0.16 0.018,0.045 0.045,0.079 0.083,0.101 0.037,0.023 0.078,0.034 0.121,0.034 0.053,0 0.098,-0.015 0.135,-0.046 0.037,-0.03 0.062,-0.076 0.075,-0.136 z"
           style="fill:#090909;fill-opacity:1;fill-rule:nonzero;stroke:#f6f6f6;stroke-width:0.23962803;stroke-miterlimit:2;stroke-dasharray:none;stroke-opacity:1;paint-order:stroke markers fill"
           id="path14"
           inkscape:connector-curvature="0" /></g><g
         transform="matrix(12,0,0,12,8.70948,4.01501)"
         id="g20"
         style="fill:#090909;fill-opacity:1;stroke:#f6f6f6;stroke-width:0.23962803;stroke-miterlimit:2;stroke-dasharray:none;stroke-opacity:1;paint-order:stroke markers fill"><path
           d="M 0.412,-0.281 V -0.365 H 0.715 V -0.1 c -0.046,0.038 -0.094,0.065 -0.144,0.084 -0.049,0.019 -0.1,0.028 -0.152,0.028 -0.07,0 -0.134,-0.015 -0.192,-0.045 -0.057,-0.03 -0.101,-0.074 -0.13,-0.131 -0.029,-0.057 -0.044,-0.12 -0.044,-0.19 0,-0.07 0.015,-0.135 0.044,-0.196 0.029,-0.06 0.071,-0.105 0.126,-0.134 0.054,-0.029 0.117,-0.044 0.189,-0.044 0.051,0 0.098,0.008 0.14,0.025 0.042,0.017 0.075,0.04 0.098,0.07 0.024,0.03 0.042,0.069 0.055,0.117 L 0.619,-0.492 C 0.608,-0.529 0.595,-0.557 0.579,-0.578 0.563,-0.599 0.54,-0.616 0.511,-0.628 0.481,-0.641 0.448,-0.647 0.412,-0.647 0.369,-0.647 0.331,-0.64 0.3,-0.627 0.268,-0.614 0.243,-0.597 0.223,-0.575 0.204,-0.554 0.189,-0.53 0.178,-0.504 0.16,-0.46 0.151,-0.412 0.151,-0.36 c 0,0.063 0.011,0.117 0.033,0.16 0.022,0.043 0.054,0.075 0.096,0.096 0.042,0.02 0.086,0.031 0.134,0.031 0.041,0 0.081,-0.008 0.12,-0.024 0.039,-0.016 0.068,-0.033 0.089,-0.05 v -0.134 z"
           style="fill:#090909;fill-opacity:1;fill-rule:nonzero;stroke:#f6f6f6;stroke-width:0.23962803;stroke-miterlimit:2;stroke-dasharray:none;stroke-opacity:1;paint-order:stroke markers fill"
           id="path18"
           inkscape:connector-curvature="0" /></g><g
         transform="matrix(12,0,0,12,18.0435,4.01501)"
         id="g24"
         style="fill:#090909;fill-opacity:1;stroke:#f6f6f6;stroke-width:0.23962803;stroke-miterlimit:2;stroke-dasharray:none;stroke-opacity:1;paint-order:stroke markers fill"><path
           d="M -0.001,0 0.273,-0.716 H 0.375 L 0.668,0 H 0.561 L 0.477,-0.217 H 0.178 L 0.099,0 Z M 0.205,-0.294 H 0.448 L 0.373,-0.492 C 0.35,-0.552 0.333,-0.602 0.322,-0.641 0.313,-0.595 0.3,-0.549 0.284,-0.504 Z"
           style="fill:#090909;fill-opacity:1;fill-rule:nonzero;stroke:#f6f6f6;stroke-width:0.23962803;stroke-miterlimit:2;stroke-dasharray:none;stroke-opacity:1;paint-order:stroke markers fill"
           id="path22"
           inkscape:connector-curvature="0" /></g><g
         transform="matrix(12,0,0,12,26.0474,4.01501)"
         id="g28"
         style="fill:#090909;fill-opacity:1;stroke:#f6f6f6;stroke-width:0.23962803;stroke-miterlimit:2;stroke-dasharray:none;stroke-opacity:1;paint-order:stroke markers fill"><path
           d="m 0.588,-0.251 0.095,0.024 C 0.663,-0.149 0.627,-0.09 0.575,-0.049 0.524,-0.008 0.461,0.012 0.386,0.012 0.309,0.012 0.246,-0.003 0.198,-0.035 0.15,-0.066 0.113,-0.112 0.088,-0.171 0.062,-0.231 0.05,-0.295 0.05,-0.363 c 0,-0.075 0.014,-0.14 0.043,-0.195 0.028,-0.056 0.069,-0.098 0.121,-0.127 0.053,-0.029 0.111,-0.043 0.174,-0.043 0.071,0 0.132,0.018 0.18,0.055 0.049,0.036 0.083,0.087 0.102,0.153 L 0.577,-0.498 C 0.561,-0.55 0.536,-0.588 0.505,-0.611 0.473,-0.635 0.434,-0.647 0.386,-0.647 c -0.055,0 -0.101,0.013 -0.138,0.04 -0.037,0.026 -0.063,0.061 -0.078,0.106 -0.015,0.044 -0.023,0.09 -0.023,0.137 0,0.061 0.009,0.114 0.027,0.16 0.018,0.045 0.045,0.079 0.083,0.101 0.037,0.023 0.078,0.034 0.121,0.034 0.053,0 0.098,-0.015 0.135,-0.046 0.037,-0.03 0.062,-0.076 0.075,-0.136 z"
           style="fill:#090909;fill-opacity:1;fill-rule:nonzero;stroke:#f6f6f6;stroke-width:0.23962803;stroke-miterlimit:2;stroke-dasharray:none;stroke-opacity:1;paint-order:stroke markers fill"
           id="path26"
           inkscape:connector-curvature="0" /></g></g></g></svg>