<?xml version="1.0" encoding="UTF-8" standalone="no"?>
<svg
   xmlns:dc="http://purl.org/dc/elements/1.1/"
   xmlns:cc="http://creativecommons.org/ns#"
   xmlns:rdf="http://www.w3.org/1999/02/22-rdf-syntax-ns#"
   xmlns:svg="http://www.w3.org/2000/svg"
   xmlns="http://www.w3.org/2000/svg"
   xmlns:sodipodi="http://sodipodi.sourceforge.net/DTD/sodipodi-0.dtd"
   xmlns:inkscape="http://www.inkscape.org/namespaces/inkscape"
   width="100%"
   height="100%"
   viewBox="0 0 16 16"
   version="1.1"
   xml:space="preserve"
   style="fill-rule:evenodd;clip-rule:evenodd;stroke-linejoin:round;stroke-miterlimit:2;"
   id="svg34"
   sodipodi:docname="AssemblyListGAC.svg"
   inkscape:version="0.92.4 (5da689c313, 2019-01-14)"><metadata
     id="metadata40"><rdf:RDF><cc:Work
         rdf:about=""><dc:format>image/svg+xml</dc:format><dc:type
           rdf:resource="http://purl.org/dc/dcmitype/StillImage" /><dc:title /></cc:Work></rdf:RDF></metadata><defs
     id="defs38" /><sodipodi:namedview
     pagecolor="#ffffff"
     bordercolor="#666666"
     borderopacity="1"
     objecttolerance="10"
     gridtolerance="10"
     guidetolerance="10"
     inkscape:pageopacity="0"
     inkscape:pageshadow="2"
     inkscape:window-width="1920"
     inkscape:window-height="1017"
     id="namedview36"
     showgrid="false"
     inkscape:zoom="59"
     inkscape:cx="10.185456"
     inkscape:cy="6.2184606"
     inkscape:window-x="-8"
     inkscape:window-y="-8"
     inkscape:window-maximized="1"
     inkscape:current-layer="svg34" /><rect
     style="fill:#f6f6f6;fill-opacity:0;fill-rule:nonzero"
     height="16"
     width="16"
     y="0"
     x="0"
     id="canvas" /><path
     inkscape:connector-curvature="0"
     style="fill:#f6f6f6;fill-rule:nonzero"
     d="m 16,6 v 9 H 8 V 12 H 6 v 2 H 0 V 7 H 2.019 V 6 H 0 V 2.018 H 2.019 V 0 H 6 V 2.018 H 8 V 6 H 6 V 9 H 8 V 6 Z"
     id="outline" /><path
     inkscape:connector-curvature="0"
     style="fill:#424242;fill-rule:nonzero"
     d="M 15,14 H 9 V 7 h 6 z M 5,8 H 1 v 5 h 4 z m 3,2 H 6 v 1 h 2 z"
     id="iconBg" /><path
     inkscape:connector-curvature="0"
     style="fill:#388a34;fill-rule:nonzero"
     d="M 7,3.018 H 5 V 1 H 3.019 V 3.018 H 1 V 5 H 3.019 V 7 H 5 V 5 h 2 z"
     id="colorAction" /><path
     style="opacity:1;fill:#f6f6f6;fill-opacity:1;fill-rule:nonzero;stroke:#f6f6f6;stroke-width:0.92304718;stroke-linecap:round;stroke-linejoin:round;stroke-miterlimit:2;stroke-dasharray:none;stroke-opacity:1;paint-order:stroke markers fill"
     d="m 12.115051,12.119209 h 2.731841 v 2.250121 h -2.731841 z"
     id="rect855" /><path
     style="clip-rule:evenodd;opacity:1;fill:#f6f6f6;fill-opacity:1;fill-rule:nonzero;stroke:#f6f6f6;stroke-width:1.21481812;stroke-linecap:round;stroke-linejoin:round;stroke-miterlimit:2;stroke-dasharray:none;stroke-opacity:1;paint-order:stroke markers fill"
     d="M 3.2681589,12 H 8 v 2.250121 H 3.2681589 Z"
     id="rect855-8" /><path
     inkscape:connector-curvature="0"
     id="path6"
     style="fill:#090909;fill-opacity:1;fill-rule:nonzero;stroke:#f6f6f6;stroke-width:1.42003238;stroke-miterlimit:2;stroke-dasharray:none;stroke-opacity:1;paint-order:stroke markers fill"
     d="m 4.6532176,13.643132 v -0.497783 h 1.7955738 v 1.570386 c -0.2725954,0.225188 -0.5570427,0.38519 -0.853342,0.497783 -0.2903733,0.112594 -0.5925986,0.165928 -0.9007499,0.165928 -0.414819,0 -0.7940821,-0.08889 -1.1377893,-0.266669 C 3.219129,14.934997 2.9583856,14.674254 2.7865321,14.336472 2.6146785,13.998691 2.5257887,13.625354 2.5257887,13.210535 c 0,-0.414819 0.08889,-0.800008 0.2607434,-1.161493 0.1718535,-0.355559 0.420745,-0.622229 0.7466742,-0.794082 0.3200032,-0.171854 0.6933403,-0.260744 1.1200113,-0.260744 0.3022253,0 0.5807466,0.04741 0.829638,0.14815 0.2488915,0.100742 0.444449,0.237039 0.5807467,0.414819 0.1422236,0.17778 0.2488914,0.408893 0.3259292,0.69334 L 5.8798967,12.392749 C 5.8147109,12.173488 5.737673,12.00756 5.6428573,11.883114 5.5480415,11.758668 5.4117438,11.657927 5.2398902,11.586815 5.0621106,11.509777 4.8665531,11.474221 4.6532176,11.474221 c -0.2548174,0 -0.4800048,0.04148 -0.6637104,0.11852 -0.1896316,0.07704 -0.3377812,0.177779 -0.4563009,0.308151 -0.1125938,0.124446 -0.2014835,0.26667 -0.2666694,0.420745 -0.1066677,0.260744 -0.1600016,0.545191 -0.1600016,0.853342 0,0.373337 0.065186,0.69334 0.1955575,0.948158 0.1303717,0.254817 0.3200033,0.444449 0.5688947,0.568895 0.2488914,0.118519 0.5096348,0.183705 0.7940821,0.183705 0.2429654,0 0.4800049,-0.04741 0.7111183,-0.142224 0.2311135,-0.09482 0.402967,-0.195557 0.5274127,-0.296299 v -0.794082 z" /><path
     inkscape:connector-curvature="0"
     id="path10"
     style="fill:#090909;fill-opacity:1;fill-rule:nonzero;stroke:#f6f6f6;stroke-width:1.42003238;stroke-miterlimit:2;stroke-dasharray:none;stroke-opacity:1;paint-order:stroke markers fill"
     d="m 6.8152247,15.308334 1.6237201,-4.243006 h 0.6044506 l 1.7363136,4.243006 h -0.63408 L 9.647846,14.022395 H 7.8759762 l -0.4681529,1.285939 z m 1.2207531,-1.74224 H 9.4759924 L 9.0315434,12.392749 C 8.8952458,12.03719 8.794504,11.740891 8.7293181,11.509777 c -0.053334,0.272595 -0.1303716,0.545191 -0.2251874,0.81186 z" /><path
     inkscape:connector-curvature="0"
     id="path14"
     style="fill:#090909;fill-opacity:1;fill-rule:nonzero;stroke:#f6f6f6;stroke-width:1.42003238;stroke-miterlimit:2;stroke-dasharray:none;stroke-opacity:1;paint-order:stroke markers fill"
     d="m 14.258214,13.820912 0.562968,0.142223 c -0.118519,0.462227 -0.331855,0.81186 -0.640006,1.054826 -0.302225,0.242965 -0.675563,0.361485 -1.120012,0.361485 -0.4563,0 -0.829638,-0.08889 -1.114085,-0.278521 -0.284447,-0.183706 -0.503709,-0.456301 -0.651858,-0.805935 -0.154076,-0.355559 -0.225188,-0.734822 -0.225188,-1.137789 0,-0.444449 0.08296,-0.829638 0.254818,-1.155567 0.165927,-0.331855 0.408893,-0.580747 0.717044,-0.7526 0.314077,-0.171854 0.657784,-0.254818 1.031121,-0.254818 0.420745,0 0.782231,0.106668 1.066678,0.32593 0.290373,0.213335 0.491857,0.51556 0.60445,0.906675 l -0.551116,0.130372 c -0.09482,-0.308151 -0.242966,-0.533339 -0.426671,-0.669636 -0.189632,-0.142224 -0.420745,-0.213336 -0.705193,-0.213336 -0.325929,0 -0.598524,0.07704 -0.817786,0.23704 -0.219261,0.154075 -0.373337,0.361485 -0.462226,0.628154 -0.08889,0.260743 -0.136298,0.533339 -0.136298,0.81186 0,0.361485 0.05333,0.675563 0.160001,0.948158 0.106668,0.266669 0.26667,0.468153 0.491857,0.598525 0.219262,0.136297 0.462227,0.201483 0.717045,0.201483 0.314077,0 0.580746,-0.08889 0.800008,-0.272595 0.219261,-0.17778 0.367411,-0.450375 0.444449,-0.805934 z" /><path
     id="path26"
     style="fill:#f6f6f6;fill-opacity:1;fill-rule:nonzero;stroke:#f6f6f6;stroke-width:1.42003238;stroke-miterlimit:2;stroke-dasharray:none;stroke-opacity:1;paint-order:stroke markers fill"
     d="m 14.258214,13.820912 0.562968,0.142223 c -0.118519,0.462227 -0.331855,0.81186 -0.640006,1.054826 -0.302225,0.242965 -0.675563,0.361485 -1.120012,0.361485 -0.4563,0 -0.829638,-0.08889 -1.114085,-0.278521 -0.284447,-0.183706 -0.503709,-0.456301 -0.651858,-0.805935 -0.154076,-0.355559 -0.225188,-0.734822 -0.225188,-1.137789 0,-0.444449 0.08296,-0.829638 0.254818,-1.155567 0.165927,-0.331855 0.408893,-0.580747 0.717044,-0.7526 0.314077,-0.171854 0.657784,-0.254818 1.031121,-0.254818 0.420745,0 0.782231,0.106668 1.066678,0.32593 0.290373,0.213335 0.491857,0.51556 0.60445,0.906675 l -0.551116,0.130372 c -0.09482,-0.308151 -0.242966,-0.533339 -0.426671,-0.669636 -0.189632,-0.142224 -0.420745,-0.213336 -0.705193,-0.213336 -0.325929,0 -0.598524,0.07704 -0.817786,0.23704 -0.219261,0.154075 -0.373337,0.361485 -0.462226,0.628154 -0.08889,0.260743 -0.136298,0.533339 -0.136298,0.81186 0,0.361485 0.05333,0.675563 0.160001,0.948158 0.106668,0.266669 0.26667,0.468153 0.491857,0.598525 0.219262,0.136297 0.462227,0.201483 0.717045,0.201483 0.314077,0 0.580746,-0.08889 0.800008,-0.272595 0.219261,-0.17778 0.367411,-0.450375 0.444449,-0.805934 z m -7.4429893,1.487422 1.6237201,-4.243006 h 0.6044506 l 1.7363136,4.243006 h -0.63408 L 9.647846,14.022395 H 7.8759762 l -0.4681529,1.285939 z m 1.2207531,-1.74224 H 9.4759924 L 9.0315434,12.392749 C 8.8952458,12.03719 8.794504,11.740891 8.7293181,11.509777 c -0.053334,0.272595 -0.1303716,0.545191 -0.2251874,0.81186 z m -3.3827602,0.07704 v -0.497783 h 1.7955738 v 1.570386 c -0.2725954,0.225188 -0.5570427,0.38519 -0.853342,0.497783 -0.2903733,0.112594 -0.5925986,0.165928 -0.9007499,0.165928 -0.414819,0 -0.7940821,-0.08889 -1.1377893,-0.266669 C 3.219129,14.934997 2.9583856,14.674254 2.7865321,14.336472 2.6146785,13.998691 2.5257887,13.625354 2.5257887,13.210535 c 0,-0.414819 0.08889,-0.800008 0.2607434,-1.161493 0.1718535,-0.355559 0.420745,-0.622229 0.7466742,-0.794082 0.3200032,-0.171854 0.6933403,-0.260744 1.1200113,-0.260744 0.3022253,0 0.5807466,0.04741 0.829638,0.14815 0.2488915,0.100742 0.444449,0.237039 0.5807467,0.414819 0.1422236,0.17778 0.2488914,0.408893 0.3259292,0.69334 L 5.8798967,12.392749 C 5.8147109,12.173488 5.737673,12.00756 5.6428573,11.883114 5.5480415,11.758668 5.4117438,11.657927 5.2398902,11.586815 5.0621106,11.509777 4.8665531,11.474221 4.6532176,11.474221 c -0.2548174,0 -0.4800048,0.04148 -0.6637104,0.11852 -0.1896316,0.07704 -0.3377812,0.177779 -0.4563009,0.308151 -0.1125938,0.124446 -0.2014835,0.26667 -0.2666694,0.420745 -0.1066677,0.260744 -0.1600016,0.545191 -0.1600016,0.853342 0,0.373337 0.065186,0.69334 0.1955575,0.948158 0.1303717,0.254817 0.3200033,0.444449 0.5688947,0.568895 0.2488914,0.118519 0.5096348,0.183705 0.7940821,0.183705 0.2429654,0 0.4800049,-0.04741 0.7111183,-0.142224 0.2311135,-0.09482 0.402967,-0.195557 0.5274127,-0.296299 v -0.794082 z" /><path
     id="path26-2"
     style="clip-rule:evenodd;fill:#090909;fill-opacity:1;fill-rule:nonzero;stroke:none;stroke-width:1.42003238;stroke-linejoin:round;stroke-miterlimit:2;stroke-dasharray:none;stroke-opacity:1;paint-order:stroke markers fill"
     d="m 14.258214,13.820911 0.562968,0.142223 c -0.118519,0.462227 -0.331855,0.81186 -0.640006,1.054826 -0.302225,0.242965 -0.675563,0.361485 -1.120012,0.361485 -0.4563,0 -0.829638,-0.08889 -1.114085,-0.278521 -0.284447,-0.183706 -0.503709,-0.456301 -0.651858,-0.805935 -0.154076,-0.355559 -0.225188,-0.734822 -0.225188,-1.137789 0,-0.444449 0.08296,-0.829637 0.254818,-1.155566 0.165927,-0.331855 0.408893,-0.580747 0.717044,-0.7526 0.314077,-0.171854 0.657784,-0.254818 1.031121,-0.254818 0.420745,0 0.782231,0.106668 1.066678,0.32593 0.290373,0.213335 0.491857,0.51556 0.60445,0.906675 l -0.551116,0.130372 c -0.09482,-0.308151 -0.242966,-0.533339 -0.426671,-0.669636 -0.189632,-0.142224 -0.420745,-0.213336 -0.705193,-0.213336 -0.325929,0 -0.598524,0.07704 -0.817786,0.23704 -0.219261,0.154075 -0.373337,0.361485 -0.462226,0.628154 -0.08889,0.260742 -0.136298,0.533338 -0.136298,0.811859 0,0.361485 0.05333,0.675563 0.160001,0.948158 0.106668,0.266669 0.26667,0.468153 0.491857,0.598525 0.219262,0.136297 0.462227,0.201483 0.717045,0.201483 0.314077,0 0.580746,-0.08889 0.800008,-0.272595 0.219261,-0.17778 0.367411,-0.450375 0.444449,-0.805934 z m -7.442988,1.487422 1.623719,-4.243005 h 0.604451 l 1.736313,4.243005 h -0.63408 L 9.647846,14.022394 h -1.77187 l -0.468153,1.285939 z m 1.220752,-1.74224 H 9.475993 L 9.031544,12.392749 C 8.895246,12.03719 8.794504,11.740891 8.729319,11.509777 c -0.05333,0.272595 -0.130372,0.545191 -0.225188,0.81186 z m -3.3827591,0.07704 V 13.14535 H 6.448793 v 1.570386 c -0.272596,0.225188 -0.557043,0.38519 -0.853342,0.497783 -0.290374,0.112594 -0.592599,0.165928 -0.9007501,0.165928 -0.414819,0 -0.794082,-0.08889 -1.13779,-0.266669 -0.337781,-0.17778 -0.598524,-0.438523 -0.770378,-0.776305 -0.171853,-0.337781 -0.260743,-0.711118 -0.260743,-1.125937 0,-0.414819 0.08889,-0.800008 0.260743,-1.161492 0.171854,-0.355559 0.420745,-0.62223 0.746674,-0.794083 0.320004,-0.171854 0.693341,-0.260744 1.120012,-0.260744 0.302225,0 0.5807461,0.04741 0.8296381,0.14815 0.248891,0.100742 0.444449,0.237039 0.580746,0.414819 0.142224,0.177781 0.248892,0.408894 0.32593,0.693341 L 5.879898,12.392751 C 5.814708,12.17349 5.737674,12.007562 5.642858,11.883116 5.548038,11.75867 5.411745,11.657929 5.239891,11.586817 5.062112,11.509779 4.8665539,11.474223 4.6532189,11.474223 c -0.254818,0 -0.480005,0.04148 -0.663711,0.11852 -0.189631,0.07704 -0.337781,0.177779 -0.456301,0.308151 -0.112593,0.124446 -0.201483,0.26667 -0.266669,0.420745 -0.106668,0.260743 -0.160002,0.54519 -0.160002,0.853341 0,0.373337 0.06519,0.69334 0.195558,0.948158 0.130372,0.254817 0.320003,0.444449 0.568895,0.568895 0.248891,0.118519 0.509634,0.183705 0.794082,0.183705 0.242965,0 0.4800051,-0.04741 0.7111181,-0.142224 0.231114,-0.09482 0.402967,-0.195557 0.527413,-0.296299 v -0.794084 z"
     inkscape:connector-curvature="0" /></svg>