<svg xmlns="http://www.w3.org/2000/svg" viewBox="0 0 16 16"><style>.icon-canvas-transparent{opacity:0;fill:#f6f6f6}.icon-vs-out{fill:#f6f6f6}.icon-vs-bg{fill:#424242}.icon-vs-fg{fill:#f0eff1}</style><path class="icon-canvas-transparent" d="M16 16H0V0h16v16z" id="canvas"/><path class="icon-vs-out" d="M5 16v-3H1V0h6.618l2.987 3h1.017L16 7.379V16H5z" id="outline"/><path class="icon-vs-bg" d="M11.207 4H10.19L7.202 1H2v11h4v3h9V7.793L11.207 4zM11 5.207L13.793 8H11V5.207zM6 11H3V2h3.798L8.81 4H6v7zm8 3H7V5h3v4h4v5z" id="iconBg"/><path class="icon-vs-fg" d="M11 5.207L13.793 8H11V5.207zM6 11H3V2h3.798L8.81 4H6v7zm8 3H7V5h3v4h4v5z" id="iconFg"/></svg>