<svg xmlns="http://www.w3.org/2000/svg" viewBox="0 0 16 16"><style>.st0{opacity:0}.st0,.st1{fill:#f6f6f6}.st2{fill:#424242}.st3{fill:#f0eff1}</style><g id="outline"><path class="st0" d="M0 0h16v16H0z"/><path class="st1" d="M15 2v9h-4c-.164.005-1 1-1 1H8s-.836-.995-1-1v2H2V8h1V2h4.5c.646.004 1.12.191 1.5.5.381-.309.863-.5 1.5-.5H15z"/></g><g id="icon_x5F_bg"><path class="st2" d="M10.5 3c-.624 0-.984.365-1.5 1-.508-.626-.861-.996-1.5-1H4v5h1V4h2c.566 0 1 .663 1 1v4c-.33-.205-.564 0-1 0v1c.549 0 1.778-.025 2 .5.221-.525 1.451-.5 2-.5h3V3h-3.5zM13 9h-2c-.435 0-.67-.205-1 0V5c0-.385.41-1 1-1h2v5zM3 11h3v1H3z"/><path class="st2" d="M3 9h3v1H3z"/></g><g id="icon_x5F_fg"><path class="st3" d="M7 4H5v4h2v1c.436 0 .67-.205 1 0V5c0-.337-.434-1-1-1zM11 4c-.59 0-1 .615-1 1v4c.33-.205.565 0 1 0h2V4h-2z"/></g></svg>