<?xml version="1.0" encoding="UTF-8" standalone="no"?>
<svg
   xmlns:dc="http://purl.org/dc/elements/1.1/"
   xmlns:cc="http://creativecommons.org/ns#"
   xmlns:rdf="http://www.w3.org/1999/02/22-rdf-syntax-ns#"
   xmlns:svg="http://www.w3.org/2000/svg"
   xmlns="http://www.w3.org/2000/svg"
   xmlns:sodipodi="http://sodipodi.sourceforge.net/DTD/sodipodi-0.dtd"
   xmlns:inkscape="http://www.inkscape.org/namespaces/inkscape"
   viewBox="0 0 16 16"
   version="1.1"
   id="svg12"
   sodipodi:docname="FindAssembly.svg"
   inkscape:version="0.92.4 (5da689c313, 2019-01-14)">
  <metadata
     id="metadata18">
    <rdf:RDF>
      <cc:Work
         rdf:about="">
        <dc:format>image/svg+xml</dc:format>
        <dc:type
           rdf:resource="http://purl.org/dc/dcmitype/StillImage" />
        <dc:title></dc:title>
      </cc:Work>
    </rdf:RDF>
  </metadata>
  <defs
     id="defs16" />
  <sodipodi:namedview
     pagecolor="#ffffff"
     bordercolor="#666666"
     borderopacity="1"
     objecttolerance="10"
     gridtolerance="10"
     guidetolerance="10"
     inkscape:pageopacity="0"
     inkscape:pageshadow="2"
     inkscape:window-width="1920"
     inkscape:window-height="1017"
     id="namedview14"
     showgrid="false"
     inkscape:zoom="41.7193"
     inkscape:cx="10.353315"
     inkscape:cy="7.8745385"
     inkscape:window-x="-8"
     inkscape:window-y="-8"
     inkscape:window-maximized="1"
     inkscape:current-layer="svg12" />
  <style
     id="style2">.st0{opacity:0}.st0,.st1{fill:#f6f6f6}.st2{fill:#424242}</style>
  <path
     style="opacity:0;fill:#f6f6f6"
     inkscape:connector-curvature="0"
     id="path4"
     d="M 0,0 H 16 V 16 H 0 Z"
     class="st0" />
  <path
     style="fill:#f6f6f6"
     inkscape:connector-curvature="0"
     id="path6"
     d="m 16,3 v 9 H 8 V 9 H 6 v 2 H 0 V 4 H 6 V 6 H 8 V 3 Z"
     class="st1" />
  <style
     id="style20">.icon-canvas-transparent{opacity:0;fill:#f6f6f6}.icon-vs-out{fill:#f6f6f6}.icon-vs-bg{fill:#424242}.icon-vs-fg{fill:#f0eff1}</style>
  <path
     style="opacity:0;fill:#f6f6f6;stroke-width:0.56247044"
     inkscape:connector-curvature="0"
     class="icon-canvas-transparent"
     d="M 16,15.999054 H 7 V 7 h 9 z"
     id="canvas" />
  <path
     style="fill:#424242"
     inkscape:connector-curvature="0"
     id="path9"
     d="m 1,5 h 4 v 5 H 1 Z M 9,4 h 6 v 7 H 9 Z M 6,7 H 8 V 8 H 6 Z"
     class="st2" />
  <path
     style="opacity:1;fill:#f6f6f6;stroke-width:0.56247044"
     d="M 12.71875 7 C 10.909188 7 9.4375 8.4719028 9.4375 10.28125 A 3.200625 3.2002886 0 0 0 9.8867188 11.917969 L 7.2460938 14.558594 A 0.8443125 0.84422376 0 0 0 7.2460938 15.751953 A 0.840375 0.84028667 0 0 0 8.4394531 15.751953 L 11.080078 13.111328 A 3.1995 3.1991637 0 0 0 12.71875 13.560547 A 3.285 3.2846547 0 0 0 16 10.28125 C 16 8.4724398 14.528313 7 12.71875 7 z M 12.71875 8.125 A 2.158875 2.1586481 0 0 1 14.875 10.28125 A 2.1583125 2.1580857 0 0 1 12.71875 12.4375 C 11.529626 12.4375 10.5625 11.469687 10.5625 10.28125 C 10.5625 9.0928121 11.529626 8.125 12.71875 8.125 z "
     id="outline-6" />
  <path
     style="opacity:0.75;fill:#f0eff1;stroke-width:0.56247044"
     inkscape:connector-curvature="0"
     class="icon-vs-fg"
     d="m 14.875,10.280718 a 2.1583125,2.1580857 0 0 1 -2.156063,2.155836 c -1.189124,0 -2.156062,-0.967399 -2.156062,-2.155836 0,-1.1884379 0.966938,-2.1558362 2.156062,-2.1558362 A 2.158875,2.1586481 0 0 1 14.875,10.280718 Z"
     id="iconFg" />
  <path
     style="fill:#424242;stroke-width:0.56247044"
     inkscape:connector-curvature="0"
     class="icon-vs-bg"
     d="M 12.718937,7.5624409 A 2.7225,2.7222139 0 0 0 9.9998125,10.280718 c 0,0.647932 0.2373755,1.235682 0.6170625,1.703071 l -2.97225,2.9725 a 0.28160528,0.28157568 0 0 0 0.39825,0.398208 l 2.97225,-2.9725 c 0.468,0.38021 1.055812,0.61756 1.703812,0.61756 1.499063,0 2.718563,-1.219372 2.718563,-2.718277 0,-1.4989049 -1.2195,-2.7188391 -2.718563,-2.7188391 z m 0,4.8746751 c -1.189124,0 -2.156062,-0.967398 -2.156062,-2.155836 0,-1.1884375 0.966938,-2.1563982 2.156062,-2.1563982 1.188563,0 2.156063,0.9673983 2.156063,2.1558362 0,1.188437 -0.9675,2.156398 -2.156063,2.156398 z"
     id="iconBg" />
</svg>
