<svg xmlns="http://www.w3.org/2000/svg" width="16" height="16"><style type="text/css">.icon-canvas-transparent{opacity:0;fill:#F6F6F6;} .icon-vs-out{fill:#F6F6F6;} .icon-vs-fg{fill:#F0EFF1;} .icon-vs-action-blue{fill:#00539C;}</style><path class="icon-canvas-transparent" d="M16 16h-16v-16h16v16z" id="canvas"/><path class="icon-vs-out" d="M15 8c0 3.866-3.134 7-7 7s-7-3.134-7-7 3.134-7 7-7 7 3.134 7 7z" id="outline"/><path class="icon-vs-action-blue" d="M8 2c-3.245 0-6 2.756-6 6 0 3.247 2.755 6 6 6s6-2.753 6-6c0-3.244-2.755-6-6-6zm1 9h-2l2-2h-5v-2h5l-2-2h2l3 3-3 3z" id="iconBg"/><path class="icon-vs-fg" d="M9 11h-2l2-2h-5v-2h5l-2-2h2l3 3-3 3z" id="iconFg"/></svg>