<svg xmlns="http://www.w3.org/2000/svg" viewBox="0 0 16 16"><style>.icon-canvas-transparent{opacity:0;fill:#f6f6f6}.icon-vs-out{fill:#f6f6f6}.icon-vs-fg{fill:#f0eff1}.icon-folder{fill:#dcb67a}.icon-vs-bg{fill:#424242}</style><path class="icon-canvas-transparent" d="M0 0h16v16H0V0z" id="canvas"/><path class="icon-vs-out" d="M16 6.969V16H5v-2.031H2s-.86-.022-1.43-.566c-.343-.332-.57-.817-.57-1.434v-9c0-1.303 1.005-2 2-2h7.116l1 2H13c.97 0 2 .701 2 2v2h1z" id="outline"/><path class="icon-vs-fg" d="M7 9h1v1H7V9zm0 3h1v-1H7v1zm0 2h1v-1H7v1zm2 0h5v-1H9v1zm0-2h5v-1H9v1zm0-3v1h5V9H9z" id="iconFg"/><g id="iconBg"><path class="icon-folder" d="M2 3h6l1 2h4v2h1V5c0-1-1.236-1-1-1H9.5l-1-2H2S1 2 1 3v9c0 .97.94.984.997.984H2V3z"/><path class="icon-folder" d="M5 8H4l-2 5h3z"/><path class="icon-vs-bg" d="M6 8v7h9V8H6zm1 1h1v1H7V9zm0 2h1v1H7v-1zm0 3v-1h1v1H7zm7 0H9v-1h5v1zm0-2H9v-1h5v1zm0-2H9V9h5v1z"/></g></svg>