<svg xmlns="http://www.w3.org/2000/svg" viewBox="0 0 16 16" enable-background="new 0 0 16 16"><style type="text/css">.icon-canvas-transparent{opacity:0;fill:#F6F6F6;} .icon-vs-out{fill:#F6F6F6;} .icon-folder{fill:#DCB67A;} .icon-vs-fg{fill:#F0EFF1;} .icon-vs-bg{fill:#424242;}</style><path class="icon-canvas-transparent" d="M0 0h16v16h-16v-16z" id="canvas"/><path class="icon-vs-out" d="M14.996 4.5v8c0 .827-.673 1.5-1.5 1.5h-2.496v2h-11v-13.5c0-.827.673-1.5 1.5-1.5h8.11l1 2h2.886c.827 0 1.5.673 1.5 1.5z" id="outline"/><g id="iconBg"><path class="icon-folder" d="M13.496 4h-3.504l-1-2h-7.492c-.275 0-.5.224-.5.5v4.5h10v6h2.496c.277 0 .5-.224.5-.5v-8c0-.276-.223-.5-.5-.5zm-11.496 0v-1h6.374l.5 1h-6.874z"/><path class="icon-vs-bg" d="M1 8v7h9v-7h-9zm1 1h1v1h-1v-1zm0 2h1v1h-1v-1zm0 3v-1h1v1h-1zm7 0h-5v-1h5v1zm0-2h-5v-1h5v1zm0-2h-5v-1h5v1z"/></g><path class="icon-vs-fg" d="M2 9h1v1h-1v-1zm0 2h1v1h-1v-1zm0 3v-1h1v1h-1zm7 0h-5v-1h5v1zm0-2h-5v-1h5v1zm0-2h-5v-1h5v1zm-7-7h6.374l.5 1h-6.874v-1z" id="iconFg"/></svg>