<svg xmlns="http://www.w3.org/2000/svg" viewBox="0 0 16 16"><style>.st0{opacity:0}.st0,.st1{fill:#f6f6f6}.st2{fill:#424242}.st3{fill:#f0eff1}</style><g id="outline"><path class="st0" d="M0 0h16v16H0z"/><path class="st1" d="M15 4.465v7.07L8.303 16h-.606L1 11.535v-7.07L7.697 0h.605L15 4.465z"/></g><path class="st2" d="M8 1L2 5v6l6 4 6-4V5L8 1zm0 1.201l4.648 3.1-1.892 1.261-4.654-3.095L8 2.201zm-.5 11.264l-4.5-3v-1.53l4.5 3v1.53zm0-2.733l-4.5-3V6.268l4.5 3v1.464zM3.353 5.301l1.849-1.232 4.653 3.094L8 8.398 3.353 5.301zM13 10.465l-4.5 3v-1.53l4.5-3v1.53zm0-2.733l-4.5 3V9.268l4.5-3v1.464z" id="icon_x5F_bg"/><g id="icon_x5F_fg"><path class="st3" d="M8 2.201l4.648 3.1-1.892 1.261-4.654-3.095zM7.5 13.465l-4.5-3v-1.53l4.5 3zM7.5 10.732l-4.5-3V6.268l4.5 3zM3.353 5.301l1.848-1.233 4.653 3.094L8 8.398zM13 10.465l-4.5 3v-1.53l4.5-3zM13 7.732l-4.5 3V9.268l4.5-3z"/></g></svg>