<svg xmlns="http://www.w3.org/2000/svg" viewBox="0 0 16 16" enable-background="new 0 0 16 16"><style type="text/css">.icon-canvas-transparent{opacity:0;fill:#F6F6F6;} .icon-vs-out{fill:#F6F6F6;} .icon-vs-green{fill:#339933;} .icon-white{fill:#FFFFFF;}</style><path class="icon-canvas-transparent" d="M16 16h-16v-16h16v16z" id="canvas"/><path class="icon-vs-out" d="M8 16c-4.411 0-8-3.589-8-8s3.589-8 8-8 8 3.589 8 8-3.589 8-8 8z" id="outline"/><path class="icon-vs-green" d="M8 1c-3.866 0-7 3.134-7 7s3.134 7 7 7 7-3.134 7-7-3.134-7-7-7zm-1.7 11.389l-3.257-3.257 1.414-1.414 1.843 1.843 5.243-5.243 1.414 1.414-6.657 6.657z" id="iconBg"/><path class="icon-white" d="M6.3 12.389l-3.257-3.257 1.414-1.414 1.843 1.843 5.243-5.243 1.414 1.414-6.657 6.657z" id="iconFg"/></svg>