<?xml version="1.0" encoding="UTF-8" standalone="no"?>
<svg
   xmlns:dc="http://purl.org/dc/elements/1.1/"
   xmlns:cc="http://creativecommons.org/ns#"
   xmlns:rdf="http://www.w3.org/1999/02/22-rdf-syntax-ns#"
   xmlns:svg="http://www.w3.org/2000/svg"
   xmlns="http://www.w3.org/2000/svg"
   xmlns:sodipodi="http://sodipodi.sourceforge.net/DTD/sodipodi-0.dtd"
   xmlns:inkscape="http://www.inkscape.org/namespaces/inkscape"
   width="16"
   height="16"
   version="1.1"
   id="svg8"
   sodipodi:docname="OverlayPrivateProtected.svg"
   inkscape:version="0.92.4 (5da689c313, 2019-01-14)"
   inkscape:export-filename="C:\Users\sie_p\Projects\ILSpy master\ILSpy\Images\OverlayPrivateProtected.png"
   inkscape:export-xdpi="96"
   inkscape:export-ydpi="96">
  <metadata
     id="metadata14">
    <rdf:RDF>
      <cc:Work
         rdf:about="">
        <dc:format>image/svg+xml</dc:format>
        <dc:type
           rdf:resource="http://purl.org/dc/dcmitype/StillImage" />
        <dc:title></dc:title>
      </cc:Work>
    </rdf:RDF>
  </metadata>
  <defs
     id="defs12" />
  <sodipodi:namedview
     pagecolor="#ffffff"
     bordercolor="#666666"
     borderopacity="1"
     objecttolerance="10"
     gridtolerance="10"
     guidetolerance="10"
     inkscape:pageopacity="0"
     inkscape:pageshadow="2"
     inkscape:window-width="2048"
     inkscape:window-height="1089"
     id="namedview10"
     showgrid="false"
     showguides="true"
     inkscape:guide-bbox="true"
     inkscape:zoom="29.5"
     inkscape:cx="4.803773"
     inkscape:cy="8.7743744"
     inkscape:window-x="1912"
     inkscape:window-y="-8"
     inkscape:window-maximized="1"
     inkscape:current-layer="svg8" />
  <style
     type="text/css"
     id="style2">.icon-canvas-transparent{opacity:0;fill:#F6F6F6;} .icon-vs-out{fill:#F6F6F6;} .icon-vs-bg{fill:#424242;} .icon-vs-action-orange{fill:#C27D1A;}</style>
  <path
     class="icon-canvas-transparent"
     d="M16 16h-16v-16h16v16z"
     id="canvas" />
  <path
     style="fill:#f6f6f6"
     d="M 11.736328 9 L 11.136719 11 L 10.632812 11 C 10.415044 10.054102 9.8177904 9.0078125 7.8417969 9.0078125 L 7.6914062 9.0136719 C 4.9301226 9.0136719 4.9016665 10.606139 4.7871094 11.625 L 4.6992188 11.625 L 4.6992188 16 L 9.6386719 16 L 10.818359 16 L 11.314453 16 L 12.482422 15.125 L 13.650391 16 L 15.326172 16 L 14.589844 13.544922 L 15.982422 12.5 L 15.982422 11 L 13.826172 11 L 13.226562 9 L 11.736328 9 z "
     id="outline" />
  <path
     class="icon-vs-bg"
     d="m 13.98242,15 -1.5,-1.125 -1.5,1.125 0.551,-1.837 L 9.9824205,12 H 11.88242 l 0.6,-2 0.6,2 h 1.9 l -1.551,1.163 z"
     id="notificationBg"
     inkscape:connector-curvature="0"
     style="fill:#424242" />
  <path
     inkscape:connector-curvature="0"
     class="icon-vs-bg"
     d="m 5.5898257,12.093683 c 0.113632,-0.983354 0.1573366,-2.212327 2.251661,-2.212327 1.9466033,0 1.9973013,1.234218 2.0715993,2.212327 H 9.0687116 c -0.01224,-0.652073 -0.135484,-1.346976 -1.2272249,-1.346976 -1.0847481,0 -1.3251235,0.709763 -1.3766949,1.346976 z m 4.3547273,0.409949 v 2.622276 H 5.5740921 V 12.503632 Z M 8.1963686,13.377724 H 7.3222761 v 0.874092 h 0.8740925 z"
     id="notificationBg-3"
     style="fill:#424242;stroke-width:0.87409204" />
  <path
     inkscape:connector-curvature="0"
     class="icon-vs-fg"
     d="m 7.3222761,13.377724 h 0.8740915 v 0.874092 H 7.3222761 Z"
     id="notificationFg"
     style="fill:#f6f6f6;fill-opacity:1;stroke-width:0.87409204" />
</svg>
