<svg xmlns="http://www.w3.org/2000/svg" viewBox="0 0 16 16"><style>.icon-canvas-transparent{opacity:0;fill:#f6f6f6}.icon-vs-out{fill:#f6f6f6}.icon-vs-action-blue{fill:#00539c}</style><path class="icon-canvas-transparent" d="M16 0v16H0V0h16z" id="canvas"/><path class="icon-vs-out" d="M16 8c0 4.411-3.589 8-8 8s-8-3.589-8-8a7.99 7.99 0 0 1 1.088-4H0V0h8v8H4c0 2.206 1.794 4 4 4s4-1.794 4-4c0-1.344-.669-2.59-1.79-3.334l-.833-.554L11.592.78l.833.553A7.992 7.992 0 0 1 16 8z" id="outline"/><g id="iconBg"><path class="icon-vs-action-blue" d="M15 8c0 3.859-3.141 7-7 7-3.86 0-7-3.141-7-7a7 7 0 0 1 2.12-5H1V1h6v6H5V4.002A5.01 5.01 0 0 0 3 8c0 2.757 2.243 5 5 5s5-2.243 5-5a4.993 4.993 0 0 0-2.236-4.167l1.107-1.666A6.989 6.989 0 0 1 15 8z"/></g></svg>