<svg xmlns="http://www.w3.org/2000/svg" viewBox="0 0 16 16"><defs><style>.a,.icon-canvas-transparent{fill:#f6f6f6}.icon-canvas-transparent{opacity:0}.b{fill:#424242}.icon-vs-fg{fill:#f0eff1}.icon-vs-blue{fill:#1ba1e2}.icon-vs-action-orange{fill:#c27d1a}</style></defs><title>Image_16x</title><path class="icon-canvas-transparent" d="M16 16H0V0h16z"/><path class="a" d="M16 0v15H0V0z"/><path class="b" d="M1 1v9l1-.927V2h12v9.098L15 12V1H1z"/><path class="b" d="M1 1v9l1-.927V2h12v9.098L15 12V1H1z"/><path class="icon-vs-fg" d="M5 6.293l-3 3V2h12v9.293l-2-2-2 2zM10 4.5A1.5 1.5 0 1 0 11.5 3 1.5 1.5 0 0 0 10 4.5z"/><path class="icon-vs-blue" d="M1 10l4-3.707 5 5 2-2L15 12v2H1v-4z"/><circle class="icon-vs-action-orange" cx="11.5" cy="4.5" r="1.5"/></svg>