<svg xmlns="http://www.w3.org/2000/svg" width="16" height="16"><style type="text/css">.icon-canvas-transparent{opacity:0;fill:#F6F6F6;} .icon-vs-out{fill:#F6F6F6;} .icon-vs-bg{fill:#424242;} .icon-vs-fg{fill:#F0EFF1;} .icon-asp-html-wpf-blue{fill:#0095D7;}</style><path class="icon-canvas-transparent" d="M16 16h-16v-16h16v16z" id="canvas"/><path class="icon-vs-out" d="M2.965 16c-.953 0-1.965-.701-1.965-2v-12c0-1.299 1.012-2 1.964-2h8.059l3.977 3.553v10.447c-.028.825-.593 2-2.035 2h-10z" id="outline"/><path class="icon-vs-bg" d="M10.641,1H2.964C2.964,1,2,1,2,2c0,0.805,0,9.441,0,12c0,1,0.965,1,0.965,1s9,0,10,0S14,14,14,14V4L10.641,1z M13,14H3V2h7v3h3V14z M6,4H4V3h2V4z M9,4H7V3h2V4z M6,6H4V5h2V6z M9,6H7V5h2V6z M6,8H4V7h2V8z M9,8H7V7h2
		V8z" id="iconBg"/><path class="icon-vs-fg" d="M10 5v-3h-7v12h10v-9h-3zm-3-2h2v1h-2v-1zm0 2h2v1h-2v-1zm0 2h2v1h-2v-1zm-3-4h2v1h-2v-1zm0 2h2v1h-2v-1zm0 2h2v1h-2v-1zm8 6h-1v-2h-2.785l-1.715 2h-1.5l6-7h1v7zm-2.929-3l1.929-2.25v2.25h-1.929z" id="iconFg"/><path class="icon-asp-html-wpf-blue" d="M11 6l-6 7h1.5l1.715-2h2.785v2h1v-7h-1zm0 4h-1.929l1.929-2.25v2.25z" id="colorImportance"/></svg>