<svg xmlns="http://www.w3.org/2000/svg" width="16" height="16"><style type="text/css">.icon-canvas-transparent{opacity:0;fill:#F6F6F6;} .icon-vs-out{fill:#F6F6F6;} .icon-vs-bg{fill:#424242;} .icon-vs-fg{fill:#F0EFF1;}</style><path class="icon-canvas-transparent" d="M16 16h-16v-16h16v16z" id="canvas"/><path class="icon-vs-out" d="M13.689 0l2.311 2.179v8.864s.195 1.957-2.003 1.957h-2.997v1.016s.125 1.984-1.984 1.984h-7c-2.016 0-2.016-2.031-2.016-2.031v-10.469c0-1.104.719-2.042 1.713-2.373l.287-.127v-1h11.689z" id="outline"/><path class="icon-vs-bg" d="M5,9H3V8h2V9zM5,10H3v1h2V10zM3,13h2v-1H3V13zM1,7v7c0,0.986,1,1,1,1h7.032c0,0,0.969-0.156,0.969-1.016S10,13,10,13H9v1H2V7h3V6H2C1.048,6,1,7,1,7zM9,7h1v1h1V7h1V4H9V7zM8,10h2V8H8V10zM13,10V8h-2v2H13zM2,3.5C2,3.225,2.225,3,2.5,3H4L3,4h1.5L6,2.5L4.5,1H3l1,1H2.5C1.673,2,1,2.673,1,3.5V5h1V3.5zM13,1H6.964c0,0-0.442,0.008-0.727,0.323L7,2.086V2h5v2h2v7H7V2.914l-1,1C6,6.012,6,9.237,6,11c0,1,0.964,1,0.964,1s6,0,7,0S15,11,15,11V3L13,1z" id="iconBg"/><path class="icon-vs-fg" d="M8 13h-1.488c-1.553-.303-1.512-2-1.512-2h-2v-1h2v-1h-2v-1h2v-1h-3v7h7v-1h-1zm-5 0v-1h2.031l-.016 1h-2.015zm11-9v7h-7v-8.086l.414-.414-.414-.414v-.086h5v2h-3v3h1v1h-2v2h2v-2h1v2h2v-2h-2v-1h1v-3h2z" id="iconFg"/></svg>