<?xml version="1.0" encoding="UTF-8" standalone="no"?>
<svg
   viewBox="0 0 16 16"
   version="1.1"
   id="svg8"
   sodipodi:docname="ZoomOut.svg"
   inkscape:version="1.1 (c68e22c387, 2021-05-23)"
   xmlns:inkscape="http://www.inkscape.org/namespaces/inkscape"
   xmlns:sodipodi="http://sodipodi.sourceforge.net/DTD/sodipodi-0.dtd"
   xmlns="http://www.w3.org/2000/svg"
   xmlns:svg="http://www.w3.org/2000/svg">
  <defs
     id="defs12" />
  <sodipodi:namedview
     id="namedview10"
     pagecolor="#ffffff"
     bordercolor="#666666"
     borderopacity="1.0"
     inkscape:pageshadow="2"
     inkscape:pageopacity="0.0"
     inkscape:pagecheckerboard="0"
     showgrid="false"
     inkscape:zoom="52"
     inkscape:cx="8"
     inkscape:cy="7.7211538"
     inkscape:window-width="1920"
     inkscape:window-height="1017"
     inkscape:window-x="2552"
     inkscape:window-y="605"
     inkscape:window-maximized="1"
     inkscape:current-layer="svg8" />
  <style
     id="style2">.icon-canvas-transparent{opacity:0;fill:#f6f6f6}.icon-vs-out{fill:#f6f6f6}.icon-vs-bg{fill:#424242}.icon-vs-fg{fill:#f0eff1}</style>
  <path
     class="icon-canvas-transparent"
     d="M16 16H0V0h16v16z"
     id="canvas" />
  <path
     class="icon-vs-out"
     d="M16 5.833a5.84 5.84 0 0 1-5.833 5.833 5.688 5.688 0 0 1-2.913-.8L2.56 15.559a1.494 1.494 0 0 1-2.121.002 1.501 1.501 0 0 1 0-2.121l4.694-4.695a5.69 5.69 0 0 1-.8-2.911C4.333 2.617 6.95 0 10.167 0S16 2.617 16 5.833z"
     id="outline" />
  <path
     class="icon-vs-fg"
     d="M14 5.833a3.837 3.837 0 0 1-3.833 3.833c-2.114 0-3.833-1.72-3.833-3.833S8.053 2 10.167 2A3.838 3.838 0 0 1 14 5.833z"
     id="iconFg" />
  <path
     class="icon-vs-bg"
     d="M10.167 1a4.84 4.84 0 0 0-4.834 4.833c0 1.152.422 2.197 1.097 3.028l-5.284 5.285a.5.5 0 0 0 .708.708l5.284-5.285c.832.676 1.877 1.098 3.029 1.098 2.665 0 4.833-2.168 4.833-4.833S12.832 1 10.167 1zm0 8.667c-2.114 0-3.833-1.72-3.833-3.833S8.053 2 10.167 2C12.28 2 14 3.72 14 5.833s-1.72 3.834-3.833 3.834z"
     id="iconBg" />
  <rect
     style="fill:#424242;fill-opacity:1"
     id="rect884"
     width="4.6153846"
     height="0.88461536"
     x="7.8649998"
     y="5.3461561" />
</svg>
